<svg width="1918" height="56" viewBox="0 0 1918 56" fill="none" xmlns="http://www.w3.org/2000/svg">
<path fill-rule="evenodd" clip-rule="evenodd" d="M918.125 44.0306V26.6564L935.658 24.435C947.558 22.8483 947.638 8.96479 935.658 8.96479H918.125C918.046 4.20472 917.491 1.03135 914 1.03135V0H935.658C957.793 0 960.252 23.483 943.433 31.2577L952.081 43.8719C952.111 43.9325 952.141 43.9816 952.167 44.0234C952.209 44.0912 952.239 44.1402 952.239 44.1893L957.158 51.3293C958.745 53.2334 960.331 54.5027 962.394 54.5027V55.5341H944.623V54.5027C947.003 54.5027 946.606 52.8367 945.258 50.536L933.834 33.6378L927.646 34.4311V44.0306C927.646 50.298 927.646 54.5027 931.771 54.5027V55.5341H914V54.5027C918.125 54.5027 918.125 50.298 918.125 44.0306ZM964.746 0H1004.81V13.0108H1003.78C1003.78 8.88546 999.574 8.88546 993.307 8.88546H978.392V46.6486H993.307C999.574 46.6486 1004.89 46.6486 1004.89 42.5232H1006L1004.81 55.5341H964.746V54.5027C968.872 54.5027 968.872 50.298 968.872 44.0306V11.5035C968.872 5.23607 968.872 1.03135 964.746 1.03135V0ZM993.227 36.6525H992.196C991.64 32.2891 988.467 28.1637 984.421 28.1637V27.1324C988.467 27.1324 991.64 23.0863 992.196 18.6436H993.227C993.862 23.0863 996.956 27.1324 1001.08 27.1324V28.1637C996.956 28.1637 993.862 32.2891 993.227 36.6525ZM786 13.5662L800.434 28L786 42.4338L774.066 30.5H0V25.5H774.066L786 13.5662ZM1117.57 28L1132 13.5662L1143.93 25.5H1918V30.5H1143.93L1132 42.4338L1117.57 28Z" fill="white"/>
</svg>
