<svg width="32" height="25" viewBox="0 0 32 25" fill="none" xmlns="http://www.w3.org/2000/svg">
<mask id="mask0_339_3762" style="mask-type:luminance" maskUnits="userSpaceOnUse" x="0" y="0" width="32" height="25">
<path d="M0 24.958H32V0.958008H0V24.958Z" fill="white"/>
</mask>
<g mask="url(#mask0_339_3762)">
<path d="M21.3261 17.2457C19.7496 17.2457 18.4507 15.8441 18.4507 14.123C18.4507 12.4016 19.7243 11.0004 21.3261 11.0004C22.941 11.0004 24.2273 12.4142 24.2021 14.123C24.2021 15.8441 22.941 17.2457 21.3261 17.2457ZM10.6936 17.2457C9.11657 17.2457 7.81764 15.8441 7.81764 14.123C7.81764 12.4016 9.09133 11.0004 10.6936 11.0004C12.308 11.0004 13.5943 12.4142 13.5691 14.123C13.5691 15.8441 12.2949 17.2457 10.6936 17.2457ZM27.0893 3.09527C25.0499 2.18938 22.8626 1.52174 20.5757 1.13949C20.5343 1.13207 20.4923 1.15039 20.4712 1.18749C20.1899 1.67185 19.8785 2.3037 19.6603 2.80029C17.2009 2.44378 14.7535 2.44378 12.3445 2.80029C12.1259 2.29279 11.8032 1.67185 11.5206 1.18749C11.4994 1.1517 11.4575 1.13338 11.4161 1.13949C9.13054 1.52043 6.94327 2.18807 4.90249 3.09527C4.88491 3.10268 4.86958 3.11534 4.85967 3.13105C0.711386 9.13192 -0.425289 14.9849 0.132232 20.7654C0.134486 20.7937 0.151162 20.8204 0.173697 20.8378C2.91082 22.784 5.56232 23.9652 8.16423 24.7485C8.20615 24.7612 8.25032 24.7459 8.27646 24.7127C8.89212 23.8989 9.44063 23.041 9.91116 22.1386C9.9391 22.0858 9.91251 22.023 9.85572 22.002C8.98541 21.6826 8.15657 21.2925 7.35972 20.8505C7.29663 20.8147 7.29167 20.7274 7.34936 20.6855C7.51747 20.5638 7.68513 20.4368 7.84513 20.3094C7.87443 20.2858 7.91454 20.281 7.94879 20.2954C13.1855 22.6108 18.8554 22.6108 24.0308 20.2954C24.0646 20.2797 24.1052 20.2849 24.1349 20.3081C24.2954 20.4359 24.4635 20.5638 24.6325 20.6855C24.6902 20.7274 24.6866 20.8147 24.623 20.8505C23.8262 21.3012 22.9978 21.6826 22.1257 22.0007C22.0689 22.0217 22.0441 22.0858 22.0716 22.1386C22.5525 23.0397 23.101 23.8976 23.705 24.7114C23.7307 24.7459 23.7762 24.7612 23.8172 24.7485C26.4322 23.9652 29.0837 22.784 31.8203 20.8378C31.8447 20.8204 31.8596 20.795 31.8623 20.7662C32.5293 14.0838 30.7445 8.2784 27.1312 3.13236C27.1218 3.11534 27.1069 3.10268 27.0893 3.09527Z" fill="white"/>
</g>
</svg>
