<svg width="42" height="33" viewBox="0 0 42 33" fill="none" xmlns="http://www.w3.org/2000/svg">
<mask id="mask0_256_3807" style="mask-type:luminance" maskUnits="userSpaceOnUse" x="0" y="0" width="42" height="33">
<path d="M0 33H41.58V-1.3113e-06H0V33Z" fill="white"/>
</mask>
<g mask="url(#mask0_256_3807)">
<path d="M27.7107 22.3952C25.6621 22.3952 23.9743 20.468 23.9743 18.1016C23.9743 15.7346 25.6293 13.808 27.7107 13.808C29.809 13.808 31.4804 15.752 31.4476 18.1016C31.4476 20.468 29.809 22.3952 27.7107 22.3952ZM13.895 22.3952C11.8458 22.3952 10.158 20.468 10.158 18.1016C10.158 15.7346 11.813 13.808 13.895 13.808C15.9927 13.808 17.6641 15.752 17.6313 18.1016C17.6313 20.468 15.9757 22.3952 13.895 22.3952ZM35.1992 2.93837C32.5492 1.69277 29.7071 0.774766 26.7356 0.249166C26.6817 0.238966 26.6272 0.264167 26.5997 0.315167C26.2343 0.981167 25.8296 1.84997 25.5462 2.53277C22.3504 2.04257 19.1704 2.04257 16.0402 2.53277C15.7561 1.83497 15.3368 0.981167 14.9696 0.315167C14.9421 0.265967 14.8876 0.240766 14.8337 0.249166C11.864 0.772966 9.02192 1.69097 6.37017 2.93837C6.34733 2.94857 6.32742 2.96597 6.31453 2.98757C0.924358 11.2388 -0.552609 19.2866 0.17182 27.2348C0.174748 27.2738 0.196416 27.3104 0.225697 27.3344C3.78225 30.0104 7.22754 31.6346 10.6084 32.7116C10.6629 32.729 10.7203 32.708 10.7542 32.6624C11.5542 31.5434 12.2669 30.3638 12.8783 29.123C12.9146 29.0504 12.8801 28.964 12.8063 28.9352C11.6754 28.496 10.5984 27.9596 9.56304 27.3518C9.48105 27.3026 9.47461 27.1826 9.54957 27.125C9.76801 26.9576 9.98587 26.783 10.1938 26.6078C10.2318 26.5754 10.284 26.5688 10.3285 26.5886C17.1329 29.7722 24.5002 29.7722 31.2251 26.5886C31.269 26.567 31.3217 26.5742 31.3603 26.606C31.5688 26.7818 31.7873 26.9576 32.0069 27.125C32.0818 27.1826 32.0771 27.3026 31.9946 27.3518C30.9592 27.9716 29.8828 28.496 28.7496 28.9334C28.6758 28.9622 28.6436 29.0504 28.6793 29.123C29.3042 30.362 30.0169 31.5416 30.8016 32.6606C30.835 32.708 30.8942 32.729 30.9475 32.7116C34.3453 31.6346 37.7906 30.0104 41.3466 27.3344C41.3782 27.3104 41.3975 27.2756 41.401 27.236C42.2678 18.0476 39.9487 10.0652 35.2536 2.98937C35.2413 2.96597 35.222 2.94857 35.1992 2.93837Z" fill="white"/>
</g>
</svg>
