<svg width="1024" height="242" viewBox="0 0 1024 242" fill="none" xmlns="http://www.w3.org/2000/svg">
<circle cx="107.486" cy="107.929" r="74.6224" stroke="white" stroke-width="2.19882" stroke-dasharray="6.06 6.06"/>
<path fill-rule="evenodd" clip-rule="evenodd" d="M107.164 0.685466C107.262 0.0685889 108.15 0.0685902 108.249 0.685467L119.073 68.1744C123.133 69.3457 126.936 71.1244 130.377 73.4057L169.892 44.8129C170.399 44.4466 171.026 45.0743 170.66 45.5805L142.057 85.1103C144.352 88.5869 146.134 92.4314 147.296 96.5364L214.95 107.386C215.567 107.485 215.567 108.373 214.95 108.472L147.213 119.335C146.047 123.344 144.287 127.1 142.037 130.503L170.66 170.061C171.026 170.567 170.399 171.194 169.892 170.828L130.335 142.205C126.918 144.465 123.146 146.229 119.119 147.396L108.249 215.173C108.15 215.79 107.262 215.79 107.164 215.173L96.3018 147.446C92.2217 146.283 88.3999 144.507 84.9421 142.225L45.4123 170.828C44.9061 171.194 44.2784 170.567 44.6447 170.061L73.2375 130.545C70.9686 127.123 69.1969 123.343 68.0253 119.307L0.462657 108.472C-0.15422 108.373 -0.154219 107.485 0.462659 107.386L67.9428 96.5642C69.1096 92.4323 70.9044 88.5639 73.2175 85.0686L44.6447 45.5805C44.2784 45.0743 44.9061 44.4466 45.4123 44.8129L84.9004 73.3857C88.3822 71.0816 92.2342 69.2918 96.348 68.1247L107.164 0.685466ZM77.3897 107.792C77.3897 99.6609 80.5992 92.2798 85.8205 86.8462L86.6779 85.9887C92.1116 80.7675 99.4927 77.5579 107.623 77.5579C124.321 77.5579 137.857 91.094 137.857 107.792C137.857 124.489 124.321 138.025 107.623 138.025C90.9258 138.025 77.3897 124.489 77.3897 107.792ZM97.353 106.759V117.909C97.353 121.932 97.353 124.63 94.7054 124.63V125.292H106.11V124.63C103.463 124.63 103.463 121.932 103.463 117.909V111.749L107.434 111.239L114.766 122.084C115.632 123.561 115.886 124.63 114.359 124.63V125.292H125.764V124.63C124.44 124.63 123.422 123.816 122.403 122.594L119.247 118.011C119.247 117.98 119.227 117.948 119.2 117.905C119.184 117.878 119.164 117.846 119.145 117.808L113.595 109.712C124.389 104.722 122.811 89.6514 108.605 89.6514H94.7054V90.3133C96.9456 90.3133 97.3021 92.3499 97.353 95.4049H108.605C116.293 95.4049 116.243 104.315 108.605 105.333L97.353 106.759Z" fill="white"/>
<path d="M146.071 36.1495H144.948C144.343 31.3985 140.888 26.9066 136.482 26.9066V25.7836C140.888 25.7836 144.343 21.3781 144.948 16.5407H146.071C146.762 21.3781 150.131 25.7836 154.623 25.7836V26.9066C150.131 26.9066 146.762 31.3985 146.071 36.1495Z" fill="white"/>
<path d="M54.3566 182.112H53.642C53.2572 179.088 51.0584 176.23 48.2549 176.23V175.515C51.0584 175.515 53.2572 172.712 53.642 169.633H54.3566C54.7964 172.712 56.9402 175.515 59.7987 175.515V176.23C56.9402 176.23 54.7964 179.088 54.3566 182.112Z" fill="white"/>
<path d="M153.69 42.102H153.123C152.818 39.7046 151.075 37.438 148.852 37.438V36.8713C151.075 36.8713 152.818 34.6483 153.123 32.2073H153.69C154.039 34.6483 155.739 36.8713 158.005 36.8713V37.438C155.739 37.438 154.039 39.7046 153.69 42.102Z" fill="white"/>
<path d="M233.724 102.848V93.8464L242.808 92.6956C248.973 91.8736 249.014 84.6809 242.808 84.6809H233.724C233.683 82.2149 233.395 80.5708 231.587 80.5708V80.0365H242.808C254.275 80.0365 255.549 92.2024 246.835 96.2303L251.315 102.765C251.357 102.848 251.398 102.889 251.398 102.93L253.946 106.629C254.768 107.615 255.59 108.273 256.659 108.273V108.807H247.452V108.273C248.685 108.273 248.48 107.41 247.781 106.218L241.862 97.4633L238.656 97.8743V102.848C238.656 106.095 238.656 108.273 240.794 108.273V108.807H231.587V108.273C233.724 108.273 233.724 106.095 233.724 102.848ZM257.877 80.0365H278.633V86.7771H278.099C278.099 84.6398 275.921 84.6398 272.674 84.6398H264.947V104.204H272.674C275.921 104.204 278.674 104.204 278.674 102.067H279.25L278.633 108.807H257.877V108.273C260.014 108.273 260.014 106.095 260.014 102.848V85.9961C260.014 82.7492 260.014 80.5708 257.877 80.5708V80.0365ZM272.632 99.0252H272.098C271.81 96.7646 270.166 94.6274 268.07 94.6274V94.093C270.166 94.093 271.81 91.9969 272.098 89.6952H272.632C272.961 91.9969 274.564 94.093 276.701 94.093V94.6274C274.564 94.6274 272.961 96.7646 272.632 99.0252ZM296.346 108.807H281.92V108.273C284.057 108.273 284.057 106.095 284.057 102.848V85.9961C284.057 82.7492 284.057 80.5708 281.92 80.5708V80.0365H294.044C302.593 80.0365 305.018 88.0512 301.402 92.6545C307.978 96.7646 306.293 108.807 296.346 108.807ZM288.989 84.5987V91.2982H294.044C299.223 91.2982 299.223 84.5987 294.044 84.5987H288.989ZM288.989 95.9015V104.204H296.346C301.566 104.204 301.566 95.9015 296.346 95.9015H288.989ZM339.283 94.4218C339.283 104.45 331.885 109.465 324.487 109.465C317.047 109.465 309.649 104.45 309.649 94.4218C309.649 84.3932 317.047 79.3789 324.487 79.3789C331.885 79.3789 339.283 84.3932 339.283 94.4218ZM334.474 94.4218C334.474 87.6813 329.46 84.3521 324.487 84.3521C319.472 84.3521 314.499 87.6813 314.499 94.4218C314.499 101.162 319.472 104.492 324.487 104.492C329.46 104.492 334.474 101.162 334.474 94.4218ZM324.857 98.943H324.322C324.035 96.6413 322.391 94.5452 320.294 94.5452V93.9697C322.391 93.9697 324.035 91.8736 324.322 89.5719H324.857C325.185 91.8736 326.788 93.9697 328.926 93.9697V94.5452C326.788 94.5452 325.185 96.6413 324.857 98.943ZM351.935 108.807H342.728V108.273C344.865 108.273 344.865 106.095 344.865 102.848V85.9961C344.865 82.7492 344.865 80.5708 342.728 80.5708V80.0365H353.949C365.416 80.0365 366.69 92.2024 357.977 96.2303L362.457 102.765C362.498 102.848 362.539 102.889 362.539 102.93L365.087 106.629C365.909 107.615 366.731 108.273 367.8 108.273V108.807H358.593V108.273C359.826 108.273 359.621 107.41 358.922 106.218L353.003 97.4633L349.798 97.8743V102.848C349.798 106.095 349.798 108.273 351.935 108.273V108.807ZM349.798 84.6809V93.2299L353.949 92.6956C360.114 91.8736 360.155 84.6809 353.949 84.6809H349.798ZM369.018 80.0365H374.074L389.692 99.3951V85.1741C389.692 82.3793 389.487 80.5708 387.555 80.5708V80.0365H396.762V80.5708C394.624 80.5708 394.624 82.7492 394.624 85.9961V102.848C394.624 106.095 394.624 108.273 396.762 108.273V108.807H391.172L376.088 90.3118V102.848C376.088 106.095 376.088 108.273 378.225 108.273V108.807H369.018V108.273C371.156 108.273 371.156 106.095 371.156 102.848V85.9961C371.156 82.7492 371.156 80.5708 369.018 80.5708V80.0365ZM408.674 80.0365H429.43V86.7771H428.896C428.896 84.6398 426.718 84.6398 423.471 84.6398H415.744V93.682H420.511C423.758 93.682 425.937 93.682 425.937 91.5448H426.471V100.423H425.937C425.937 98.2853 423.758 98.2853 420.511 98.2853H415.744V102.848C415.744 106.095 415.744 108.273 417.881 108.273V108.807H408.674V108.273C410.812 108.273 410.812 106.095 410.812 102.848V85.9961C410.812 82.7492 410.812 80.5708 408.674 80.5708V80.0365ZM441.522 108.807H432.316V108.273C434.453 108.273 434.453 106.095 434.453 102.848V85.9961C434.453 82.7492 434.453 80.5708 432.316 80.5708V80.0365H443.536C455.003 80.0365 456.277 92.2024 447.564 96.2303L452.044 102.765C452.085 102.848 452.126 102.889 452.126 102.93L454.674 106.629C455.496 107.615 456.318 108.273 457.387 108.273V108.807H448.18V108.273C449.414 108.273 449.208 107.41 448.509 106.218L442.591 97.4633L439.385 97.8743V102.848C439.385 106.095 439.385 108.273 441.522 108.273V108.807ZM439.385 84.6809V93.2299L443.536 92.6956C449.701 91.8736 449.742 84.6809 443.536 84.6809H439.385ZM486.629 94.4218C486.629 104.45 479.23 109.465 471.832 109.465C464.393 109.465 456.995 104.45 456.995 94.4218C456.995 84.3932 464.393 79.3789 471.832 79.3789C479.23 79.3789 486.629 84.3932 486.629 94.4218ZM481.82 94.4218C481.82 87.6813 476.805 84.3521 471.832 84.3521C466.818 84.3521 461.845 87.6813 461.845 94.4218C461.845 101.162 466.818 104.492 471.832 104.492C476.805 104.492 481.82 101.162 481.82 94.4218ZM497.822 108.807H488.615V108.273C490.752 108.273 491.081 106.547 491.657 102.724L494.205 85.9139C494.657 82.7492 494.246 80.5708 492.15 80.5708V80.0365H497.822L508.097 100.669L518.331 80.0365H524.044V80.5708C521.907 80.5708 521.537 82.8314 522.03 86.0783L524.537 102.971C525.113 106.629 525.442 108.273 527.538 108.273V108.807H518.331V108.273C520.468 108.273 520.181 106.095 519.688 102.848L517.92 91.3804L512.289 102.848C510.727 106.095 510.604 108.273 512.043 108.273V108.807H504.234V108.273C505.672 108.273 505.097 105.396 503.905 102.889L498.274 91.3804L496.507 102.848C496.013 106.095 495.685 108.273 497.822 108.273V108.807ZM540.524 106.341L546.566 93.2299H551.704L549.114 98.8608H558.321L550.923 82.7903C550.101 80.7763 548.498 80.5708 547.593 80.5708V80.0365H554.663L566.705 105.93C567.445 107.41 568.144 108.273 569.5 108.273V108.807H560.294V108.273C562.308 108.273 561.65 106.136 560.458 103.464H547.018C545.826 106.136 545.168 108.273 547.141 108.273V108.807H537.976V108.273C539.209 108.273 539.866 107.574 540.524 106.341ZM591.699 83.078L590.753 89.5719H590.219C590.055 87.558 586.561 83.6945 581.423 83.6945C578.957 83.6945 576.574 84.5576 576.574 87.4347C576.574 92.3668 592.562 91.7092 592.562 101.779C592.562 107.369 587.054 109.999 582.122 109.999C577.889 109.999 573.532 108.478 570.902 104.985H570.86L572.546 99.1896H573.08C573.984 102.848 578.752 105.149 582.287 105.149C584.465 105.149 587.712 104.327 587.712 101.615C587.712 96.107 571.724 96.6824 571.724 87.2703C571.724 81.6394 576.409 78.8446 581.588 78.8446C585.328 78.8446 589.027 80.4475 591.699 83.078ZM605.043 108.807H595.836V108.273C597.974 108.273 597.974 106.095 597.974 102.848V85.9961C597.974 82.7492 597.974 80.5708 595.836 80.5708V80.0365H605.043V80.5708C602.906 80.5708 602.906 82.7492 602.906 85.9961V92.1202H616.675V85.9961C616.675 82.7492 616.675 80.5708 614.537 80.5708V80.0365H623.703V80.5708C621.607 80.5708 621.607 82.7492 621.607 85.9961V102.848C621.607 106.095 621.607 108.273 623.703 108.273V108.807H614.537V108.273C616.675 108.273 616.675 106.095 616.675 102.848V96.7235H602.906V102.848C602.906 106.095 602.906 108.273 605.043 108.273V108.807ZM625.659 80.0365H646.415V86.7771H645.88C645.88 84.6398 643.702 84.6398 640.455 84.6398H632.728V92.1202H637.496C640.743 92.1202 642.921 92.1202 642.921 89.9829H643.455V98.8608H642.921C642.921 96.7235 640.743 96.7235 637.496 96.7235H632.728V104.204H640.455C643.702 104.204 646.456 104.204 646.456 102.067H647.031L646.415 108.807H625.659V108.273C627.796 108.273 627.796 106.095 627.796 102.848V85.9961C627.796 82.7492 627.796 80.5708 625.659 80.5708V80.0365ZM671.813 83.078L670.868 89.5719H670.334C670.169 87.558 666.676 83.6945 661.538 83.6945C659.072 83.6945 656.688 84.5576 656.688 87.4347C656.688 92.3668 672.677 91.7092 672.677 101.779C672.677 107.369 667.169 109.999 662.237 109.999C658.004 109.999 653.647 108.478 651.016 104.985H650.975L652.66 99.1896H653.195C654.099 102.848 658.867 105.149 662.401 105.149C664.58 105.149 667.827 104.327 667.827 101.615C667.827 96.107 651.838 96.6824 651.838 87.2703C651.838 81.6394 656.524 78.8446 661.703 78.8446C665.443 78.8446 669.142 80.4475 671.813 83.078Z" fill="white"/>
<path d="M231.423 160.883L242.355 133.469H245.315L256.206 160.883H253.042L243.547 136.222L244.164 136.14L234.628 160.883H231.423ZM236.231 152.334L237.506 149.498H250.946L251.151 152.334H236.231ZM272.22 160.883V142.018C272.549 141.881 273.179 141.648 274.111 141.319C275.07 140.99 276.207 140.689 277.522 140.415C278.865 140.141 280.249 140.004 281.673 140.004C281.893 140.004 282.112 140.031 282.331 140.086C282.55 140.141 282.769 140.195 282.989 140.25V142.881C282.276 142.799 281.577 142.757 280.892 142.757C280.235 142.757 279.591 142.799 278.961 142.881C278.33 142.936 277.7 143.018 277.07 143.127C276.44 143.237 275.81 143.347 275.179 143.456V160.883H272.22ZM294.694 161.499C291.488 161.499 289.104 160.554 287.542 158.663C286.008 156.745 285.241 154.088 285.241 150.69C285.241 147.128 286.049 144.456 287.666 142.675C289.31 140.894 291.625 140.004 294.612 140.004C296.831 140.004 298.64 140.456 300.037 141.36C301.435 142.237 302.462 143.484 303.12 145.1C303.777 146.689 304.106 148.553 304.106 150.69C304.106 154.06 303.284 156.704 301.64 158.622C300.023 160.54 297.708 161.499 294.694 161.499ZM294.653 158.787C296.324 158.787 297.626 158.431 298.558 157.718C299.489 156.978 300.147 156.006 300.53 154.8C300.941 153.567 301.147 152.197 301.147 150.69C301.147 149.073 300.941 147.676 300.53 146.498C300.119 145.292 299.434 144.36 298.475 143.703C297.544 143.045 296.27 142.716 294.653 142.716C293.009 142.716 291.721 143.073 290.789 143.785C289.858 144.497 289.186 145.456 288.775 146.662C288.392 147.84 288.2 149.183 288.2 150.69C288.2 153.101 288.68 155.06 289.639 156.567C290.598 158.047 292.269 158.787 294.653 158.787ZM312.628 160.883H309.669V132.564H312.628V160.883ZM327.688 161.499C325.743 161.499 324.058 161.102 322.633 160.308C321.208 159.486 320.112 158.266 319.345 156.65C318.577 155.033 318.194 153.019 318.194 150.608C318.194 147.073 318.988 144.429 320.578 142.675C322.194 140.894 324.4 140.004 327.195 140.004C329.387 140.004 331.141 140.497 332.456 141.483C333.798 142.47 334.758 143.799 335.333 145.47C335.908 147.142 336.182 149.032 336.155 151.142H319.673L319.879 148.429H334.223L333.072 148.84C332.99 146.785 332.47 145.251 331.511 144.237C330.579 143.223 329.14 142.716 327.195 142.716C325.852 142.716 324.729 142.963 323.825 143.456C322.948 143.949 322.29 144.812 321.852 146.045C321.413 147.251 321.194 148.95 321.194 151.142C321.194 153.635 321.77 155.54 322.92 156.855C324.099 158.143 325.743 158.787 327.853 158.787C328.866 158.787 329.798 158.718 330.647 158.581C331.497 158.417 332.278 158.198 332.99 157.924C333.703 157.65 334.333 157.348 334.881 157.019V160.061C333.894 160.527 332.798 160.883 331.593 161.13C330.415 161.376 329.113 161.499 327.688 161.499ZM349.754 161.458C349.151 161.458 348.466 161.376 347.699 161.212C346.959 161.047 346.233 160.842 345.521 160.595C344.808 160.349 344.178 160.088 343.63 159.814L344.658 158.787V169.802H341.698V144.073C341.698 143.223 341.959 142.538 342.479 142.018C343.027 141.497 343.726 141.1 344.576 140.826C345.425 140.524 346.329 140.319 347.288 140.209C348.247 140.072 349.151 140.004 350.001 140.004C351.645 140.004 353.193 140.346 354.645 141.031C356.097 141.716 357.276 142.881 358.18 144.525C359.084 146.141 359.536 148.347 359.536 151.142C359.536 153.252 359.153 155.088 358.385 156.65C357.646 158.184 356.55 159.376 355.097 160.225C353.645 161.047 351.864 161.458 349.754 161.458ZM349.754 158.746C351.261 158.746 352.494 158.431 353.453 157.8C354.44 157.143 355.18 156.239 355.673 155.088C356.166 153.937 356.413 152.622 356.413 151.142C356.413 149.662 356.248 148.279 355.919 146.991C355.591 145.703 354.96 144.675 354.029 143.908C353.097 143.114 351.741 142.716 349.96 142.716C348.535 142.716 347.288 142.881 346.22 143.21C345.178 143.538 344.658 144.004 344.658 144.607V157.307C345.507 157.8 346.357 158.17 347.206 158.417C348.055 158.636 348.905 158.746 349.754 158.746ZM368.058 160.883H365.099V132.564H368.058V160.883ZM381.721 161.499C380.817 161.499 379.899 161.404 378.967 161.212C378.063 161.02 377.213 160.691 376.419 160.225C375.652 159.76 375.021 159.129 374.528 158.335C374.062 157.513 373.829 156.485 373.829 155.252C373.829 153.553 374.145 152.197 374.775 151.183C375.432 150.142 376.323 149.402 377.446 148.964C378.597 148.498 379.912 148.265 381.392 148.265C382.515 148.265 383.488 148.333 384.31 148.47C385.132 148.607 385.858 148.813 386.489 149.087C387.146 149.334 387.735 149.621 388.256 149.95L388.831 152.663C388.201 152.197 387.283 151.8 386.078 151.471C384.899 151.115 383.598 150.936 382.173 150.936C380.447 150.936 379.118 151.265 378.186 151.923C377.255 152.581 376.789 153.54 376.789 154.8C376.789 155.814 377.063 156.622 377.611 157.225C378.186 157.828 378.899 158.252 379.748 158.499C380.625 158.746 381.515 158.869 382.42 158.869C384.201 158.869 385.543 158.746 386.447 158.499C387.379 158.225 387.845 157.622 387.845 156.691V147.279C387.845 145.689 387.379 144.525 386.447 143.785C385.516 143.045 384.187 142.675 382.461 142.675C381.365 142.675 380.2 142.84 378.967 143.168C377.761 143.47 376.72 143.963 375.843 144.648V141.689C376.693 141.141 377.83 140.73 379.255 140.456C380.68 140.154 382.063 140.004 383.406 140.004C384.31 140.004 385.146 140.1 385.913 140.291C386.68 140.456 387.365 140.716 387.968 141.072C388.571 141.401 389.078 141.839 389.489 142.387C389.927 142.908 390.256 143.525 390.475 144.237C390.722 144.922 390.845 145.703 390.845 146.58V156.526C390.845 157.978 390.407 159.061 389.53 159.773C388.681 160.486 387.557 160.951 386.16 161.171C384.79 161.39 383.31 161.499 381.721 161.499ZM398.826 168.815C398.415 168.815 398.045 168.774 397.717 168.692C397.388 168.61 397.114 168.528 396.894 168.446V165.733C397.086 165.815 397.333 165.897 397.634 165.979C397.936 166.062 398.278 166.103 398.662 166.103C399.593 166.103 400.347 165.842 400.922 165.322C401.498 164.801 401.977 164.103 402.361 163.226C402.772 162.349 403.142 161.376 403.471 160.308V161.499L394.757 140.374H398.128L404.95 157.883H404.334L411.115 140.374H414.075L405.279 162.897C404.649 164.514 403.95 165.747 403.183 166.596C402.443 167.445 401.69 168.021 400.922 168.322C400.183 168.651 399.484 168.815 398.826 168.815ZM439.314 161.212C438.218 161.212 437.094 161.075 435.944 160.801C434.82 160.499 433.779 159.979 432.82 159.239C431.888 158.472 431.135 157.389 430.559 155.992C429.984 154.594 429.696 152.8 429.696 150.608C429.696 148.416 429.984 146.635 430.559 145.265C431.135 143.867 431.888 142.785 432.82 142.018C433.779 141.25 434.82 140.73 435.944 140.456C437.094 140.154 438.218 140.004 439.314 140.004C440.355 140.004 441.383 140.1 442.396 140.291C443.438 140.483 444.438 140.771 445.397 141.154V143.99C444.493 143.607 443.561 143.319 442.602 143.127C441.643 142.936 440.657 142.84 439.643 142.84C437.204 142.84 435.423 143.456 434.3 144.689C433.204 145.922 432.656 147.895 432.656 150.608C432.656 153.348 433.204 155.334 434.3 156.567C435.423 157.773 437.204 158.376 439.643 158.376C440.657 158.376 441.643 158.28 442.602 158.088C443.561 157.896 444.493 157.609 445.397 157.225V160.102C444.438 160.458 443.438 160.732 442.396 160.924C441.383 161.116 440.355 161.212 439.314 161.212ZM459.379 161.499C456.173 161.499 453.789 160.554 452.227 158.663C450.693 156.745 449.926 154.088 449.926 150.69C449.926 147.128 450.734 144.456 452.351 142.675C453.995 140.894 456.31 140.004 459.297 140.004C461.516 140.004 463.325 140.456 464.722 141.36C466.119 142.237 467.147 143.484 467.805 145.1C468.462 146.689 468.791 148.553 468.791 150.69C468.791 154.06 467.969 156.704 466.325 158.622C464.708 160.54 462.393 161.499 459.379 161.499ZM459.338 158.787C461.009 158.787 462.311 158.431 463.242 157.718C464.174 156.978 464.832 156.006 465.215 154.8C465.626 153.567 465.832 152.197 465.832 150.69C465.832 149.073 465.626 147.676 465.215 146.498C464.804 145.292 464.119 144.36 463.16 143.703C462.229 143.045 460.954 142.716 459.338 142.716C457.694 142.716 456.406 143.073 455.474 143.785C454.543 144.497 453.871 145.456 453.46 146.662C453.077 147.84 452.885 149.183 452.885 150.69C452.885 153.101 453.364 155.06 454.323 156.567C455.282 158.047 456.954 158.787 459.338 158.787ZM491.164 147.525V160.883H488.204V147.525C488.204 147.032 488.136 146.511 487.999 145.963C487.889 145.415 487.656 144.895 487.3 144.401C486.944 143.881 486.396 143.47 485.656 143.168C484.916 142.84 483.93 142.675 482.697 142.675C481.848 142.675 480.971 142.744 480.066 142.881C479.162 143.018 478.244 143.223 477.313 143.497V160.883H474.353V142.018C475.011 141.689 475.682 141.401 476.367 141.154C477.08 140.88 477.792 140.661 478.505 140.497C479.244 140.332 479.984 140.209 480.724 140.127C481.491 140.045 482.259 140.004 483.026 140.004C485.026 140.004 486.615 140.305 487.793 140.908C488.972 141.483 489.821 142.333 490.342 143.456C490.89 144.58 491.164 145.936 491.164 147.525ZM487.259 142.84C488.163 142.155 489.081 141.607 490.013 141.196C490.945 140.785 491.904 140.483 492.89 140.291C493.904 140.1 494.918 140.004 495.931 140.004C497.932 140.004 499.521 140.305 500.699 140.908C501.877 141.483 502.727 142.333 503.247 143.456C503.795 144.58 504.069 145.936 504.069 147.525V160.883H501.11V147.525C501.11 147.032 501.042 146.511 500.905 145.963C500.795 145.415 500.562 144.895 500.206 144.401C499.85 143.881 499.302 143.47 498.562 143.168C497.822 142.84 496.836 142.675 495.603 142.675C494.753 142.675 493.876 142.799 492.972 143.045C492.068 143.292 491.15 143.716 490.218 144.319L487.259 142.84ZM527.448 147.525V160.883H524.489V147.525C524.489 147.032 524.42 146.511 524.283 145.963C524.174 145.415 523.941 144.895 523.585 144.401C523.229 143.881 522.68 143.47 521.941 143.168C521.201 142.84 520.214 142.675 518.981 142.675C518.132 142.675 517.255 142.744 516.351 142.881C515.447 143.018 514.529 143.223 513.597 143.497V160.883H510.638V142.018C511.296 141.689 511.967 141.401 512.652 141.154C513.364 140.88 514.077 140.661 514.789 140.497C515.529 140.332 516.269 140.209 517.009 140.127C517.776 140.045 518.543 140.004 519.31 140.004C521.31 140.004 522.9 140.305 524.078 140.908C525.256 141.483 526.106 142.333 526.626 143.456C527.174 144.58 527.448 145.936 527.448 147.525ZM523.544 142.84C524.448 142.155 525.366 141.607 526.297 141.196C527.229 140.785 528.188 140.483 529.174 140.291C530.188 140.1 531.202 140.004 532.216 140.004C534.216 140.004 535.805 140.305 536.984 140.908C538.162 141.483 539.011 142.333 539.532 143.456C540.08 144.58 540.354 145.936 540.354 147.525V160.883H537.395V147.525C537.395 147.032 537.326 146.511 537.189 145.963C537.08 145.415 536.847 144.895 536.49 144.401C536.134 143.881 535.586 143.47 534.846 143.168C534.107 142.84 533.12 142.675 531.887 142.675C531.038 142.675 530.161 142.799 529.257 143.045C528.352 143.292 527.434 143.716 526.503 144.319L523.544 142.84ZM555.512 161.499C553.704 161.499 552.156 161.184 550.868 160.554C549.58 159.924 548.594 159.006 547.909 157.8C547.251 156.595 546.922 155.115 546.922 153.361V140.374H549.882V152.704C549.882 154.786 550.334 156.321 551.238 157.307C552.17 158.266 553.594 158.746 555.512 158.746C557.431 158.746 558.842 158.266 559.746 157.307C560.677 156.321 561.143 154.786 561.143 152.704V140.374H564.103V153.361C564.103 155.965 563.349 157.978 561.842 159.403C560.362 160.801 558.253 161.499 555.512 161.499ZM570.684 142.018C571.341 141.689 572.013 141.401 572.698 141.154C573.41 140.88 574.123 140.661 574.835 140.497C575.575 140.332 576.315 140.209 577.055 140.127C577.822 140.045 578.589 140.004 579.356 140.004C581.356 140.004 582.946 140.305 584.124 140.908C585.302 141.483 586.152 142.333 586.672 143.456C587.22 144.58 587.494 145.936 587.494 147.525V160.883H584.535V147.525C584.535 147.032 584.466 146.511 584.329 145.963C584.22 145.415 583.987 144.895 583.631 144.401C583.274 143.881 582.726 143.47 581.987 143.168C581.247 142.84 580.26 142.675 579.027 142.675C578.178 142.675 577.301 142.744 576.397 142.881C575.493 143.018 574.575 143.223 573.643 143.497V160.883H570.684V142.018ZM594.249 160.883V140.374H597.208V160.883H594.249ZM594.084 136.716V133.469H597.372V136.716H594.084ZM610.411 161.212C608.959 161.212 607.739 160.773 606.753 159.897C605.766 158.992 605.273 157.663 605.273 155.91V143.086H601.697V140.374H605.273V134.578H608.233V140.374H613.535V143.086H608.233V154.964C608.233 156.115 608.411 156.978 608.767 157.554C609.123 158.129 609.849 158.417 610.945 158.417C611.438 158.417 611.918 158.376 612.384 158.294C612.85 158.184 613.233 158.061 613.535 157.924V160.719C613.151 160.856 612.658 160.965 612.055 161.047C611.479 161.157 610.931 161.212 610.411 161.212ZM621.109 168.815C620.698 168.815 620.328 168.774 619.999 168.692C619.67 168.61 619.396 168.528 619.177 168.446V165.733C619.369 165.815 619.615 165.897 619.917 165.979C620.218 166.062 620.561 166.103 620.944 166.103C621.876 166.103 622.629 165.842 623.205 165.322C623.78 164.801 624.26 164.103 624.643 163.226C625.054 162.349 625.424 161.376 625.753 160.308V161.499L617.04 140.374H620.41L627.233 157.883H626.616L633.398 140.374H636.357L627.562 162.897C626.931 164.514 626.233 165.747 625.465 166.596C624.726 167.445 623.972 168.021 623.205 168.322C622.465 168.651 621.766 168.815 621.109 168.815ZM661.062 161.458C660.459 161.458 659.774 161.376 659.007 161.212C658.267 161.047 657.541 160.842 656.829 160.595C656.116 160.349 655.486 160.088 654.938 159.814L655.965 158.787V169.802H653.006V144.073C653.006 143.223 653.267 142.538 653.787 142.018C654.335 141.497 655.034 141.1 655.883 140.826C656.733 140.524 657.637 140.319 658.596 140.209C659.555 140.072 660.459 140.004 661.309 140.004C662.953 140.004 664.501 140.346 665.953 141.031C667.405 141.716 668.583 142.881 669.488 144.525C670.392 146.141 670.844 148.347 670.844 151.142C670.844 153.252 670.46 155.088 669.693 156.65C668.953 158.184 667.857 159.376 666.405 160.225C664.953 161.047 663.172 161.458 661.062 161.458ZM661.062 158.746C662.569 158.746 663.802 158.431 664.761 157.8C665.748 157.143 666.487 156.239 666.981 155.088C667.474 153.937 667.72 152.622 667.72 151.142C667.72 149.662 667.556 148.279 667.227 146.991C666.898 145.703 666.268 144.675 665.337 143.908C664.405 143.114 663.049 142.716 661.268 142.716C659.843 142.716 658.596 142.881 657.527 143.21C656.486 143.538 655.965 144.004 655.965 144.607V157.307C656.815 157.8 657.664 158.17 658.514 158.417C659.363 158.636 660.213 158.746 661.062 158.746ZM684.832 161.499C681.626 161.499 679.242 160.554 677.681 158.663C676.146 156.745 675.379 154.088 675.379 150.69C675.379 147.128 676.187 144.456 677.804 142.675C679.448 140.894 681.763 140.004 684.75 140.004C686.969 140.004 688.778 140.456 690.175 141.36C691.573 142.237 692.6 143.484 693.258 145.1C693.916 146.689 694.244 148.553 694.244 150.69C694.244 154.06 693.422 156.704 691.778 158.622C690.162 160.54 687.846 161.499 684.832 161.499ZM684.791 158.787C686.463 158.787 687.764 158.431 688.696 157.718C689.627 156.978 690.285 156.006 690.669 154.8C691.08 153.567 691.285 152.197 691.285 150.69C691.285 149.073 691.08 147.676 690.669 146.498C690.258 145.292 689.572 144.36 688.613 143.703C687.682 143.045 686.408 142.716 684.791 142.716C683.147 142.716 681.859 143.073 680.928 143.785C679.996 144.497 679.325 145.456 678.914 146.662C678.53 147.84 678.338 149.183 678.338 150.69C678.338 153.101 678.818 155.06 679.777 156.567C680.736 158.047 682.407 158.787 684.791 158.787ZM703.736 160.883L696.914 140.374H700.037L705.75 158.663L704.969 158.992L710.395 140.374H713.231L718.697 158.499H718.122L723.835 140.374H726.753L719.93 160.883H716.93L711.463 142.716L711.998 143.21L706.737 160.883H703.736ZM738.899 161.499C736.953 161.499 735.268 161.102 733.843 160.308C732.418 159.486 731.322 158.266 730.555 156.65C729.788 155.033 729.404 153.019 729.404 150.608C729.404 147.073 730.199 144.429 731.788 142.675C733.405 140.894 735.611 140.004 738.405 140.004C740.597 140.004 742.351 140.497 743.666 141.483C745.009 142.47 745.968 143.799 746.543 145.47C747.119 147.142 747.393 149.032 747.365 151.142H730.884L731.089 148.429H745.434L744.283 148.84C744.201 146.785 743.68 145.251 742.721 144.237C741.789 143.223 740.351 142.716 738.405 142.716C737.063 142.716 735.939 142.963 735.035 143.456C734.158 143.949 733.501 144.812 733.062 146.045C732.624 147.251 732.405 148.95 732.405 151.142C732.405 153.635 732.98 155.54 734.131 156.855C735.309 158.143 736.953 158.787 739.063 158.787C740.077 158.787 741.008 158.718 741.858 158.581C742.707 158.417 743.488 158.198 744.201 157.924C744.913 157.65 745.543 157.348 746.091 157.019V160.061C745.105 160.527 744.009 160.883 742.803 161.13C741.625 161.376 740.323 161.499 738.899 161.499ZM752.909 160.883V142.018C753.238 141.881 753.868 141.648 754.8 141.319C755.759 140.99 756.896 140.689 758.211 140.415C759.554 140.141 760.937 140.004 762.362 140.004C762.581 140.004 762.801 140.031 763.02 140.086C763.239 140.141 763.458 140.195 763.677 140.25V142.881C762.965 142.799 762.266 142.757 761.581 142.757C760.924 142.757 760.28 142.799 759.649 142.881C759.019 142.936 758.389 143.018 757.759 143.127C757.129 143.237 756.498 143.347 755.868 143.456V160.883H752.909ZM775.424 161.499C773.478 161.499 771.793 161.102 770.368 160.308C768.944 159.486 767.848 158.266 767.08 156.65C766.313 155.033 765.93 153.019 765.93 150.608C765.93 147.073 766.724 144.429 768.313 142.675C769.93 140.894 772.136 140.004 774.931 140.004C777.123 140.004 778.876 140.497 780.192 141.483C781.534 142.47 782.493 143.799 783.069 145.47C783.644 147.142 783.918 149.032 783.891 151.142H767.409L767.615 148.429H781.959L780.808 148.84C780.726 146.785 780.205 145.251 779.246 144.237C778.315 143.223 776.876 142.716 774.931 142.716C773.588 142.716 772.465 142.963 771.56 143.456C770.684 143.949 770.026 144.812 769.588 146.045C769.149 147.251 768.93 148.95 768.93 151.142C768.93 153.635 769.505 155.54 770.656 156.855C771.834 158.143 773.478 158.787 775.588 158.787C776.602 158.787 777.534 158.718 778.383 158.581C779.233 158.417 780.013 158.198 780.726 157.924C781.438 157.65 782.069 157.348 782.617 157.019V160.061C781.63 160.527 780.534 160.883 779.328 161.13C778.15 161.376 776.849 161.499 775.424 161.499ZM797.942 161.499C796.956 161.499 795.914 161.349 794.818 161.047C793.722 160.773 792.681 160.253 791.695 159.486C790.736 158.691 789.941 157.567 789.311 156.115C788.708 154.636 788.407 152.718 788.407 150.361C788.407 147.183 789.174 144.675 790.708 142.84C792.27 140.976 794.627 140.045 797.778 140.045C798.381 140.045 799.093 140.127 799.915 140.291C800.737 140.456 801.545 140.661 802.34 140.908C803.135 141.154 803.792 141.415 804.313 141.689L803.285 142.716V131.701H806.244V157.348C806.244 158.115 805.97 158.773 805.422 159.321C804.902 159.842 804.217 160.266 803.367 160.595C802.518 160.897 801.614 161.116 800.655 161.253C799.696 161.417 798.792 161.499 797.942 161.499ZM797.983 158.787C799.408 158.787 800.641 158.622 801.682 158.294C802.751 157.965 803.285 157.554 803.285 157.061V144.196C802.436 143.703 801.518 143.347 800.531 143.127C799.572 142.881 798.655 142.757 797.778 142.757C796.298 142.757 795.092 143.086 794.161 143.744C793.257 144.374 792.585 145.265 792.147 146.415C791.736 147.539 791.53 148.854 791.53 150.361C791.53 151.841 791.695 153.224 792.024 154.512C792.352 155.773 792.983 156.8 793.914 157.595C794.846 158.389 796.202 158.787 797.983 158.787ZM832.852 161.499C831.784 161.499 830.756 161.431 829.77 161.294C828.811 161.184 827.947 160.979 827.18 160.677C826.44 160.349 825.851 159.924 825.413 159.403C824.975 158.883 824.755 158.211 824.755 157.389V131.701H827.715V142.716L826.687 141.689C827.235 141.415 827.893 141.154 828.66 140.908C829.455 140.661 830.263 140.456 831.085 140.291C831.907 140.127 832.619 140.045 833.222 140.045C836.401 140.045 838.757 140.976 840.291 142.84C841.826 144.675 842.593 147.183 842.593 150.361C842.593 152.718 842.278 154.636 841.648 156.115C841.018 157.567 840.209 158.691 839.223 159.486C838.264 160.253 837.223 160.773 836.099 161.047C834.976 161.349 833.893 161.499 832.852 161.499ZM832.564 158.787C834.51 158.787 835.976 158.389 836.962 157.595C837.949 156.8 838.606 155.773 838.935 154.512C839.291 153.224 839.469 151.841 839.469 150.361C839.469 148.854 839.25 147.539 838.812 146.415C838.401 145.265 837.743 144.374 836.839 143.744C835.935 143.086 834.729 142.757 833.222 142.757C832.373 142.757 831.455 142.881 830.468 143.127C829.482 143.347 828.564 143.703 827.715 144.196V156.691C827.715 157.293 827.975 157.746 828.495 158.047C829.044 158.348 829.687 158.554 830.427 158.663C831.194 158.746 831.907 158.787 832.564 158.787ZM848.93 168.815C848.519 168.815 848.149 168.774 847.82 168.692C847.492 168.61 847.218 168.528 846.998 168.446V165.733C847.19 165.815 847.437 165.897 847.738 165.979C848.04 166.062 848.382 166.103 848.766 166.103C849.697 166.103 850.451 165.842 851.026 165.322C851.602 164.801 852.081 164.103 852.465 163.226C852.876 162.349 853.246 161.376 853.574 160.308V161.499L844.861 140.374H848.231L855.054 157.883H854.438L861.219 140.374H864.179L855.383 162.897C854.753 164.514 854.054 165.747 853.287 166.596C852.547 167.445 851.793 168.021 851.026 168.322C850.286 168.651 849.588 168.815 848.93 168.815ZM880.211 160.883V133.469H899.652V139.634H888.472V144.073H898.049V150.238H888.431V154.718H899.652V160.883H880.211ZM917.147 161.499C916.818 161.499 916.243 161.472 915.421 161.417C914.626 161.39 913.776 161.225 912.872 160.924C911.968 160.623 911.201 160.088 910.571 159.321L911.886 157.019V167.665H904.57V144.648C904.57 143.744 904.83 142.949 905.351 142.264C905.871 141.579 906.598 141.004 907.529 140.538C908.461 140.072 909.57 139.73 910.858 139.51C912.146 139.264 913.571 139.141 915.133 139.141C917.407 139.141 919.353 139.497 920.969 140.209C922.613 140.894 923.874 142.059 924.75 143.703C925.655 145.347 926.107 147.607 926.107 150.484C926.107 152.649 925.737 154.567 924.997 156.239C924.285 157.883 923.257 159.17 921.914 160.102C920.599 161.034 919.01 161.499 917.147 161.499ZM914.557 155.663C915.462 155.663 916.215 155.526 916.818 155.252C917.448 154.951 917.914 154.416 918.215 153.649C918.544 152.855 918.709 151.704 918.709 150.197C918.709 149.046 918.572 148.114 918.298 147.402C918.051 146.689 917.64 146.169 917.065 145.84C916.517 145.484 915.763 145.306 914.804 145.306C913.544 145.306 912.735 145.415 912.379 145.634C912.05 145.854 911.886 146.141 911.886 146.498V155.047C912.269 155.238 912.722 155.389 913.242 155.499C913.763 155.608 914.201 155.663 914.557 155.663ZM936.146 161.499C934.666 161.499 933.379 161.335 932.283 161.006C931.214 160.677 930.255 160.362 929.405 160.061V153.731C929.844 154.088 930.433 154.471 931.173 154.882C931.913 155.293 932.748 155.649 933.68 155.951C934.612 156.225 935.584 156.362 936.598 156.362C937.393 156.362 937.886 156.252 938.078 156.033C938.297 155.786 938.407 155.526 938.407 155.252C938.407 154.923 938.201 154.649 937.79 154.43C937.379 154.183 936.845 153.978 936.187 153.814C935.529 153.649 934.831 153.512 934.091 153.403C933.488 153.293 932.885 153.101 932.283 152.827C931.707 152.526 931.186 152.115 930.721 151.594C930.255 151.074 929.885 150.43 929.611 149.662C929.337 148.895 929.2 148.005 929.2 146.991C929.2 145.539 929.474 144.333 930.022 143.374C930.597 142.415 931.337 141.648 932.241 141.072C933.173 140.497 934.159 140.086 935.201 139.839C936.269 139.593 937.283 139.483 938.242 139.51C940.16 139.593 941.64 139.798 942.681 140.127C943.722 140.428 944.627 140.853 945.394 141.401L945.435 146.95C944.558 146.456 943.626 145.963 942.64 145.47C941.681 144.977 940.599 144.73 939.393 144.73C938.379 144.73 937.722 144.867 937.42 145.141C937.146 145.415 937.009 145.744 937.009 146.128C937.009 146.539 937.132 146.868 937.379 147.114C937.653 147.333 937.996 147.511 938.407 147.648C938.845 147.785 939.324 147.922 939.845 148.059C940.53 148.224 941.229 148.416 941.941 148.635C942.681 148.827 943.366 149.142 943.996 149.58C944.654 150.019 945.175 150.635 945.558 151.43C945.969 152.197 946.175 153.238 946.175 154.553C946.12 156.307 945.627 157.691 944.695 158.705C943.791 159.718 942.585 160.445 941.078 160.883C939.571 161.294 937.927 161.499 936.146 161.499ZM950.168 160.883V140.374H957.649L957.731 160.883H950.168ZM950.086 137.496V132.112H957.731V137.496H950.086ZM970.047 160.883H962.649V132.112H970.047V160.883ZM984.753 161.499C981.109 161.499 978.355 160.568 976.492 158.705C974.656 156.841 973.738 154.033 973.738 150.279C973.738 146.196 974.656 143.319 976.492 141.648C978.355 139.976 981.109 139.141 984.753 139.141C987.137 139.141 989.151 139.51 990.795 140.25C992.467 140.963 993.727 142.141 994.577 143.785C995.453 145.402 995.892 147.566 995.892 150.279C995.892 154.033 994.933 156.841 993.015 158.705C991.097 160.568 988.343 161.499 984.753 161.499ZM984.753 155.663C985.493 155.663 986.137 155.485 986.685 155.129C987.261 154.745 987.699 154.156 988 153.361C988.329 152.567 988.494 151.539 988.494 150.279C988.494 148.772 988.329 147.635 988 146.868C987.699 146.1 987.261 145.58 986.685 145.306C986.137 145.032 985.493 144.895 984.753 144.895C983.986 144.895 983.329 145.032 982.781 145.306C982.233 145.58 981.822 146.1 981.548 146.868C981.274 147.635 981.137 148.772 981.137 150.279C981.137 152.224 981.438 153.608 982.041 154.43C982.671 155.252 983.575 155.663 984.753 155.663ZM999.576 141.771C1000.04 141.524 1000.73 141.264 1001.63 140.99C1002.54 140.689 1003.55 140.415 1004.67 140.168C1005.82 139.921 1006.97 139.716 1008.12 139.552C1009.28 139.387 1010.32 139.305 1011.25 139.305C1013.06 139.305 1014.65 139.524 1016.02 139.963C1017.39 140.374 1018.45 141.113 1019.22 142.182C1019.99 143.223 1020.37 144.703 1020.37 146.621V160.883H1012.89V148.429C1012.89 147.881 1012.81 147.416 1012.65 147.032C1012.51 146.621 1012.29 146.306 1011.99 146.087C1011.71 145.84 1011.36 145.662 1010.92 145.552C1010.51 145.443 1010.03 145.388 1009.48 145.388C1008.96 145.388 1008.44 145.47 1007.92 145.634C1007.43 145.771 1007.14 145.908 1007.06 146.045V160.883H999.576V141.771Z" fill="white"/>
</svg>
