<svg width="45" height="45" viewBox="0 0 45 45" fill="none" xmlns="http://www.w3.org/2000/svg">
<path d="M45 8.54446C43.3444 9.27946 41.565 9.77446 39.6975 9.99759C41.6044 8.85571 43.0687 7.04634 43.7569 4.89009C41.9737 5.94759 39.9975 6.71634 37.8937 7.13071C36.2119 5.33634 33.81 4.21509 31.155 4.21509C25.1944 4.21509 20.8144 9.77634 22.1606 15.5495C14.49 15.1651 7.6875 11.4901 3.13313 5.90446C0.714375 10.0538 1.87875 15.482 5.98875 18.2307C4.4775 18.182 3.0525 17.7676 1.80937 17.0757C1.70812 21.3526 4.77375 25.3538 9.21375 26.2445C7.91438 26.597 6.49125 26.6795 5.04375 26.402C6.2175 30.0695 9.62625 32.7376 13.6687 32.8126C9.7875 35.8557 4.8975 37.2151 0 36.6376C4.08562 39.257 8.94 40.7851 14.1525 40.7851C31.2938 40.7851 40.9781 26.3082 40.3931 13.3238C42.1969 12.0207 43.7625 10.3951 45 8.54446Z" fill="white"/>
</svg>
