<svg width="42" height="42" viewBox="0 0 42 42" fill="none" xmlns="http://www.w3.org/2000/svg">
<g clip-path="url(#clip0_256_3815)">
<path d="M21 3.78525C26.607 3.78525 27.272 3.80625 29.4875 3.90775C35.1785 4.16675 37.8367 6.867 38.0957 12.516C38.1972 14.7297 38.2165 15.3948 38.2165 21.0018C38.2165 26.6105 38.1955 27.2738 38.0957 29.4875C37.835 35.1313 35.1838 37.8367 29.4875 38.0957C27.272 38.1972 26.6105 38.2183 21 38.2183C15.393 38.2183 14.728 38.1972 12.5143 38.0957C6.80925 37.835 4.165 35.1225 3.906 29.4858C3.8045 27.272 3.7835 26.6087 3.7835 21C3.7835 15.393 3.80625 14.7298 3.906 12.5143C4.16675 6.867 6.818 4.165 12.5143 3.906C14.7298 3.80625 15.393 3.78525 21 3.78525ZM21 0C15.2967 0 14.5827 0.0245 12.3427 0.126C4.71625 0.476 0.47775 4.7075 0.12775 12.341C0.0245 14.5828 0 15.2967 0 21C0 26.7033 0.0245 27.419 0.126 29.659C0.476 37.2855 4.7075 41.524 12.341 41.874C14.5828 41.9755 15.2967 42 21 42C26.7033 42 27.419 41.9755 29.659 41.874C37.2785 41.524 41.5275 37.2925 41.8723 29.659C41.9755 27.419 42 26.7033 42 21C42 15.2967 41.9755 14.5827 41.874 12.3427C41.531 4.72325 37.2942 0.47775 29.6607 0.12775C27.419 0.0245 26.7033 0 21 0ZM21 10.2165C15.0447 10.2165 10.2165 15.0447 10.2165 21C10.2165 26.9553 15.0447 31.7853 21 31.7853C26.9553 31.7853 31.7835 26.957 31.7835 21C31.7835 15.0447 26.9553 10.2165 21 10.2165ZM21 28C17.1342 28 14 24.8675 14 21C14 17.1342 17.1342 14 21 14C24.8658 14 28 17.1342 28 21C28 24.8675 24.8658 28 21 28ZM32.2105 7.27125C30.8175 7.27125 29.6888 8.4 29.6888 9.79125C29.6888 11.1825 30.8175 12.3112 32.2105 12.3112C33.6018 12.3112 34.7287 11.1825 34.7287 9.79125C34.7287 8.4 33.6018 7.27125 32.2105 7.27125Z" fill="white"/>
</g>
<defs>
<clipPath id="clip0_256_3815">
<rect width="42" height="42" fill="white"/>
</clipPath>
</defs>
</svg>
