<svg width="57" height="63" viewBox="0 0 57 63" fill="none" xmlns="http://www.w3.org/2000/svg">
<path fill-rule="evenodd" clip-rule="evenodd" d="M27.8604 0.120282C27.8862 -0.0400942 28.1169 -0.0400939 28.1427 0.120282L30.9566 17.6661C32.0122 17.9706 33.0009 18.433 33.8954 19.0261L44.1687 11.5926C44.3003 11.4973 44.4635 11.6605 44.3683 11.7921L36.9321 22.0691C37.5286 22.9729 37.992 23.9725 38.2941 25.0397L55.8828 27.8604C56.0432 27.8862 56.0432 28.1169 55.8828 28.1427L38.2726 30.9669C37.9693 32.0091 37.5119 32.9857 36.9269 33.8704L44.3683 44.1545C44.4635 44.2861 44.3003 44.4493 44.1687 44.3541L33.8846 36.9127C32.9963 37.5001 32.0155 37.9588 30.9686 38.2621L28.1427 55.8828C28.1169 56.0432 27.8862 56.0432 27.8604 55.8828L25.0366 38.2751C23.9759 37.9728 22.9823 37.5112 22.0833 36.9179L11.8063 44.3541C11.6747 44.4493 11.5115 44.2861 11.6068 44.1545L19.0403 33.8812C18.4505 32.9916 17.9899 32.0088 17.6853 30.9597L0.120282 28.1427C-0.0400942 28.1169 -0.0400939 27.8862 0.120282 27.8604L17.6638 25.0469C17.9672 23.9727 18.4338 22.967 19.0351 22.0583L11.6068 11.7921C11.5115 11.6605 11.6747 11.4973 11.8063 11.5926L22.0725 19.0209C22.9777 18.4219 23.9791 17.9566 25.0486 17.6532L27.8604 0.120282ZM20.1198 27.9658C20.1198 25.852 20.9543 23.933 22.3117 22.5204L22.5346 22.2975C23.9472 20.9401 25.8662 20.1056 27.98 20.1056C32.3211 20.1056 35.8402 23.6248 35.8402 27.9658C35.8402 32.3069 32.3211 35.826 27.98 35.826C23.6389 35.826 20.1198 32.3069 20.1198 27.9658ZM25.3099 27.6973V30.5962C25.3099 31.642 25.3099 32.3435 24.6216 32.3435V32.5156H27.5867V32.3435C26.8983 32.3435 26.8983 31.642 26.8983 30.5962V28.9946L27.9308 28.8622L29.8369 31.6817C30.062 32.0655 30.1282 32.3435 29.731 32.3435V32.5156H32.6961V32.3435C32.352 32.3435 32.0872 32.1317 31.8225 31.814L31.0018 30.6227C31.0018 30.6145 30.9967 30.6063 30.9897 30.595C30.9854 30.5881 30.9804 30.5799 30.9753 30.5698L29.5325 28.4651C32.3387 27.1679 31.9284 23.2497 28.2353 23.2497H24.6216V23.4218C25.204 23.4218 25.2967 23.9513 25.3099 24.7455H28.2353C30.234 24.7455 30.2208 27.062 28.2353 27.3267L25.3099 27.6973Z" fill="white"/>
<circle cx="27.9443" cy="28.0015" r="19.4004" stroke="white" stroke-width="0.57165" stroke-dasharray="1.57 1.57"/>
<path d="M37.9757 9.3402H37.6838C37.5266 8.10503 36.6283 6.93723 35.4829 6.93723V6.64528C36.6283 6.64528 37.5266 5.49994 37.6838 4.24231H37.9757C38.1554 5.49994 39.0312 6.64528 40.199 6.64528V6.93723C39.0312 6.93723 38.1554 8.10503 37.9757 9.3402Z" fill="white"/>
<path d="M14.1317 47.2876H13.946C13.8459 46.5016 13.2743 45.7584 12.5454 45.7584V45.5726C13.2743 45.5726 13.8459 44.8438 13.946 44.0435H14.1317C14.2461 44.8438 14.8034 45.5726 15.5466 45.5726V45.7584C14.8034 45.7584 14.2461 46.5016 14.1317 47.2876Z" fill="white"/>
<path d="M39.9564 10.8877H39.809C39.7297 10.2645 39.2764 9.67518 38.6985 9.67518V9.52786C39.2764 9.52786 39.7297 8.94992 39.809 8.31531H39.9564C40.047 8.94992 40.489 9.52786 41.0783 9.52786V9.67518C40.489 9.67518 40.047 10.2645 39.9564 10.8877Z" fill="white"/>
</svg>
