<svg width="163" height="182" viewBox="0 0 163 182" fill="none" xmlns="http://www.w3.org/2000/svg">
<circle cx="81.5414" cy="80.9231" r="55.9668" stroke="white" stroke-width="1.64912" stroke-dasharray="4.54 4.54"/>
<path fill-rule="evenodd" clip-rule="evenodd" d="M81.2995 0.490304C81.3737 0.0276454 82.0395 0.0276465 82.1137 0.490305L90.2313 51.1071C93.2766 51.9856 96.1288 53.3196 98.7094 55.0305L128.346 33.5859C128.726 33.3112 129.197 33.782 128.922 34.1616L107.47 63.809C109.191 66.4164 110.527 69.2998 111.399 72.3786L162.139 80.5161C162.602 80.5903 162.602 81.256 162.139 81.3302L111.337 89.4777C110.462 92.4841 109.142 95.3014 107.455 97.8537L128.922 127.522C129.197 127.901 128.726 128.372 128.346 128.097L98.6781 106.63C96.1156 108.325 93.286 109.648 90.266 110.523L82.1137 161.356C82.0395 161.819 81.3737 161.819 81.2995 161.356L73.1532 110.56C70.0931 109.688 67.2267 108.357 64.6334 106.645L34.986 128.097C34.6064 128.372 34.1356 127.901 34.4103 127.522L55.8549 97.885C54.1533 95.3185 52.8245 92.4834 51.9458 89.4567L1.27375 81.3302C0.811093 81.256 0.811094 80.5903 1.27375 80.5161L51.884 72.3994C52.759 69.3005 54.1051 66.3992 55.8399 63.7777L34.4103 34.1616C34.1356 33.782 34.6064 33.3112 34.986 33.5859L64.6021 55.0156C67.2135 53.2874 70.1025 51.9451 73.1878 51.0698L81.2995 0.490304ZM58.9691 80.8201C58.9691 74.722 61.3763 69.1861 65.2923 65.1108L65.9352 64.4679C70.0104 60.5519 75.5463 58.1447 81.6444 58.1447C94.1677 58.1447 104.32 68.2968 104.32 80.8201C104.32 93.3433 94.1677 103.495 81.6444 103.495C69.1212 103.495 58.9691 93.3433 58.9691 80.8201ZM73.9416 80.0455V88.4084C73.9416 91.4251 73.9416 93.449 71.9559 93.449V93.9454H80.5096V93.449C78.5239 93.449 78.5239 91.4251 78.5239 88.4084V83.7878L81.5025 83.4059L87.0013 91.5396C87.6505 92.6471 87.8414 93.449 86.6959 93.449V93.9454H95.2496V93.449C94.2568 93.449 93.493 92.838 92.7293 91.9215L90.3618 88.4847C90.3618 88.4611 90.3472 88.4375 90.327 88.4049C90.3146 88.3848 90.3 88.3612 90.2854 88.332L86.1231 82.2603C94.2186 78.5181 93.0348 67.2149 82.3808 67.2149H71.9559V67.7113C73.6361 67.7113 73.9034 69.2387 73.9416 71.5299H82.3808C88.1469 71.5299 88.1087 78.2126 82.3808 78.9763L73.9416 80.0455Z" fill="white"/>
<path d="M110.48 27.0884H109.638C109.185 23.5251 106.593 20.1562 103.289 20.1562V19.314C106.593 19.314 109.185 16.0099 109.638 12.3818H110.48C110.999 16.0099 113.525 19.314 116.894 19.314V20.1562C113.525 20.1562 110.999 23.5251 110.48 27.0884Z" fill="white"/>
<path d="M41.6945 136.56H41.1585C40.8699 134.293 39.2208 132.149 37.1182 132.149V131.613C39.2208 131.613 40.8699 129.51 41.1585 127.201H41.6945C42.0243 129.51 43.6322 131.613 45.776 131.613V132.149C43.6322 132.149 42.0243 134.293 41.6945 136.56Z" fill="white"/>
<path d="M116.194 31.5527H115.769C115.54 29.7547 114.233 28.0547 112.565 28.0547V27.6297C114.233 27.6297 115.54 25.9625 115.769 24.1317H116.194C116.456 25.9625 117.731 27.6297 119.431 27.6297V28.0547C117.731 28.0547 116.456 29.7547 116.194 31.5527Z" fill="white"/>
</svg>
