<svg width="180" height="180" viewBox="0 0 180 180" fill="none" xmlns="http://www.w3.org/2000/svg">
<circle cx="90.22" cy="7.29426" r="6.73317" stroke="white" stroke-width="1.12219"/>
<circle cx="89.7718" cy="172.706" r="6.73317" stroke="white" stroke-width="1.12219"/>
<circle cx="7.29426" cy="89.176" r="6.73317" transform="rotate(-90 7.29426 89.176)" stroke="white" stroke-width="1.12219"/>
<circle cx="172.699" cy="90.824" r="6.73317" transform="rotate(-90 172.699 90.824)" fill="white" stroke="white" stroke-width="1.12219"/>
<circle cx="28.0518" cy="144.801" r="6.73317" transform="rotate(-132.069 28.0518 144.801)" stroke="white" stroke-width="1.12219"/>
<circle cx="151.941" cy="35.1989" r="6.73317" transform="rotate(-132.069 151.941 35.1989)" fill="white" stroke="white" stroke-width="1.12219"/>
<mask id="path-7-inside-1_287_3875" fill="white">
<path fill-rule="evenodd" clip-rule="evenodd" d="M154.876 28.4453C152.329 27.3274 149.253 27.725 147.053 29.71C144.063 32.4092 143.827 37.0216 146.526 40.0121C148.342 42.0237 151.023 42.789 153.494 42.253C152.577 41.8508 151.729 41.2523 151.015 40.461C148.316 37.4705 148.552 32.858 151.542 30.1588C152.521 29.2752 153.674 28.7062 154.876 28.4453Z"/>
</mask>
<path fill-rule="evenodd" clip-rule="evenodd" d="M154.876 28.4453C152.329 27.3274 149.253 27.725 147.053 29.71C144.063 32.4092 143.827 37.0216 146.526 40.0121C148.342 42.0237 151.023 42.789 153.494 42.253C152.577 41.8508 151.729 41.2523 151.015 40.461C148.316 37.4705 148.552 32.858 151.542 30.1588C152.521 29.2752 153.674 28.7062 154.876 28.4453Z" fill="#2A2A4E"/>
<path d="M147.053 29.71L146.302 28.8769L146.302 28.8769L147.053 29.71ZM154.876 28.4453L155.114 29.542L158.497 28.8084L155.327 27.4177L154.876 28.4453ZM146.526 40.0121L145.693 40.764L145.693 40.764L146.526 40.0121ZM153.494 42.253L153.732 43.3497L157.114 42.6161L153.945 41.2254L153.494 42.253ZM151.015 40.461L151.848 39.7091L151.848 39.7091L151.015 40.461ZM151.542 30.1588L150.79 29.3258L150.79 29.3258L151.542 30.1588ZM147.805 30.543C149.665 28.8646 152.267 28.5259 154.426 29.4729L155.327 27.4177C152.39 26.1289 148.84 26.5854 146.302 28.8769L147.805 30.543ZM147.359 39.2602C145.075 36.7298 145.275 32.827 147.805 30.543L146.302 28.8769C142.851 31.9914 142.578 37.3134 145.693 40.764L147.359 39.2602ZM153.256 41.1563C151.162 41.6106 148.894 40.9612 147.359 39.2602L145.693 40.764C147.789 43.0861 150.884 43.9674 153.732 43.3497L153.256 41.1563ZM153.945 41.2254C153.171 40.8857 152.454 40.3802 151.848 39.7091L150.182 41.2129C151.004 42.1244 151.984 42.8158 153.043 43.2806L153.945 41.2254ZM151.848 39.7091C149.564 37.1786 149.764 33.2758 152.294 30.9919L150.79 29.3258C147.34 32.4403 147.067 37.7623 150.182 41.2129L151.848 39.7091ZM152.294 30.9919C153.124 30.2429 154.098 29.7624 155.114 29.542L154.639 27.3486C153.25 27.6499 151.918 28.3075 150.79 29.3258L152.294 30.9919Z" fill="white" mask="url(#path-7-inside-1_287_3875)"/>
<mask id="path-9-inside-2_287_3875" fill="white">
<path fill-rule="evenodd" clip-rule="evenodd" d="M24.7973 138.196C27.3448 137.078 30.4212 137.476 32.6204 139.461C35.6109 142.16 35.847 146.772 33.1478 149.763C31.3322 151.774 28.651 152.54 26.18 152.004C27.0966 151.601 27.9448 151.003 28.659 150.212C31.3583 147.221 31.1221 142.609 28.1316 139.91C27.1526 139.026 25.9999 138.457 24.7973 138.196Z"/>
</mask>
<path fill-rule="evenodd" clip-rule="evenodd" d="M24.7973 138.196C27.3448 137.078 30.4212 137.476 32.6204 139.461C35.6109 142.16 35.847 146.772 33.1478 149.763C31.3322 151.774 28.651 152.54 26.18 152.004C27.0966 151.601 27.9448 151.003 28.659 150.212C31.3583 147.221 31.1221 142.609 28.1316 139.91C27.1526 139.026 25.9999 138.457 24.7973 138.196Z" fill="white"/>
<path fill-rule="evenodd" clip-rule="evenodd" d="M24.7973 138.196C27.3448 137.078 30.4212 137.476 32.6204 139.461C35.6109 142.16 35.847 146.772 33.1478 149.763C31.3322 151.774 28.651 152.54 26.18 152.004C27.0966 151.601 27.9448 151.003 28.659 150.212C31.3583 147.221 31.1221 142.609 28.1316 139.91C27.1526 139.026 25.9999 138.457 24.7973 138.196Z" fill="white"/>
<path fill-rule="evenodd" clip-rule="evenodd" d="M24.7973 138.196C27.3448 137.078 30.4212 137.476 32.6204 139.461C35.6109 142.16 35.847 146.772 33.1478 149.763C31.3322 151.774 28.651 152.54 26.18 152.004C27.0966 151.601 27.9448 151.003 28.659 150.212C31.3583 147.221 31.1221 142.609 28.1316 139.91C27.1526 139.026 25.9999 138.457 24.7973 138.196Z" fill="white"/>
<path fill-rule="evenodd" clip-rule="evenodd" d="M24.7973 138.196C27.3448 137.078 30.4212 137.476 32.6204 139.461C35.6109 142.16 35.847 146.772 33.1478 149.763C31.3322 151.774 28.651 152.54 26.18 152.004C27.0966 151.601 27.9448 151.003 28.659 150.212C31.3583 147.221 31.1221 142.609 28.1316 139.91C27.1526 139.026 25.9999 138.457 24.7973 138.196Z" fill="white"/>
<path d="M32.6204 139.461L33.3723 138.628L33.3723 138.628L32.6204 139.461ZM24.7973 138.196L24.5594 139.293L21.1772 138.559L24.3463 137.168L24.7973 138.196ZM33.1478 149.763L33.9808 150.515L33.9808 150.515L33.1478 149.763ZM26.18 152.004L25.9421 153.1L22.5599 152.367L25.729 150.976L26.18 152.004ZM28.659 150.212L29.4921 150.964L29.4921 150.964L28.659 150.212ZM28.1316 139.91L27.3797 140.743L27.3797 140.743L28.1316 139.91ZM31.8685 140.294C30.0089 138.615 27.4063 138.277 25.2482 139.224L24.3463 137.168C27.2834 135.88 30.8335 136.336 33.3723 138.628L31.8685 140.294ZM32.3148 149.011C34.5987 146.48 34.3989 142.578 31.8685 140.294L33.3723 138.628C36.8229 141.742 37.0953 147.064 33.9808 150.515L32.3148 149.011ZM26.4179 150.907C28.512 151.361 30.7794 150.712 32.3148 149.011L33.9808 150.515C31.885 152.837 28.79 153.718 25.9421 153.1L26.4179 150.907ZM25.729 150.976C26.5031 150.636 27.2203 150.131 27.826 149.46L29.4921 150.964C28.6694 151.875 27.6902 152.566 26.6309 153.031L25.729 150.976ZM27.826 149.46C30.1099 146.929 29.9101 143.027 27.3797 140.743L28.8835 139.076C32.3341 142.191 32.6066 147.513 29.4921 150.964L27.826 149.46ZM27.3797 140.743C26.55 139.994 25.5757 139.513 24.5594 139.293L25.0351 137.099C26.4241 137.401 27.7553 138.058 28.8835 139.076L27.3797 140.743Z" fill="white" mask="url(#path-9-inside-2_287_3875)"/>
<mask id="path-11-inside-3_287_3875" fill="white">
<path fill-rule="evenodd" clip-rule="evenodd" d="M23.8989 29.3431C26.4465 28.2252 29.5228 28.6227 31.722 30.6077C34.7125 33.3069 34.9486 37.9194 32.2494 40.9099C30.4337 42.9214 27.7525 43.6868 25.2815 43.1508C26.1981 42.7485 27.0464 42.1501 27.7606 41.3587C30.4598 38.3682 30.2237 33.7558 27.2332 31.0566C26.2542 30.173 25.1015 29.6039 23.8989 29.3431Z"/>
</mask>
<path fill-rule="evenodd" clip-rule="evenodd" d="M23.8989 29.3431C26.4465 28.2252 29.5228 28.6227 31.722 30.6077C34.7125 33.3069 34.9486 37.9194 32.2494 40.9099C30.4337 42.9214 27.7525 43.6868 25.2815 43.1508C26.1981 42.7485 27.0464 42.1501 27.7606 41.3587C30.4598 38.3682 30.2237 33.7558 27.2332 31.0566C26.2542 30.173 25.1015 29.6039 23.8989 29.3431Z" fill="white"/>
<path fill-rule="evenodd" clip-rule="evenodd" d="M23.8989 29.3431C26.4465 28.2252 29.5228 28.6227 31.722 30.6077C34.7125 33.3069 34.9486 37.9194 32.2494 40.9099C30.4337 42.9214 27.7525 43.6868 25.2815 43.1508C26.1981 42.7485 27.0464 42.1501 27.7606 41.3587C30.4598 38.3682 30.2237 33.7558 27.2332 31.0566C26.2542 30.173 25.1015 29.6039 23.8989 29.3431Z" fill="white"/>
<path fill-rule="evenodd" clip-rule="evenodd" d="M23.8989 29.3431C26.4465 28.2252 29.5228 28.6227 31.722 30.6077C34.7125 33.3069 34.9486 37.9194 32.2494 40.9099C30.4337 42.9214 27.7525 43.6868 25.2815 43.1508C26.1981 42.7485 27.0464 42.1501 27.7606 41.3587C30.4598 38.3682 30.2237 33.7558 27.2332 31.0566C26.2542 30.173 25.1015 29.6039 23.8989 29.3431Z" fill="white"/>
<path fill-rule="evenodd" clip-rule="evenodd" d="M23.8989 29.3431C26.4465 28.2252 29.5228 28.6227 31.722 30.6077C34.7125 33.3069 34.9486 37.9194 32.2494 40.9099C30.4337 42.9214 27.7525 43.6868 25.2815 43.1508C26.1981 42.7485 27.0464 42.1501 27.7606 41.3587C30.4598 38.3682 30.2237 33.7558 27.2332 31.0566C26.2542 30.173 25.1015 29.6039 23.8989 29.3431Z" fill="white"/>
<path d="M31.722 30.6077L32.4739 29.7747L32.4739 29.7747L31.722 30.6077ZM23.8989 29.3431L23.661 30.4398L20.2788 29.7062L23.448 28.3155L23.8989 29.3431ZM32.2494 40.9099L33.0824 41.6618L33.0824 41.6618L32.2494 40.9099ZM25.2815 43.1508L25.0436 44.2475L21.6614 43.5138L24.8305 42.1232L25.2815 43.1508ZM27.7606 41.3587L26.9276 40.6068L26.9276 40.6068L27.7606 41.3587ZM27.2332 31.0566L27.9851 30.2235L27.9851 30.2235L27.2332 31.0566ZM30.9701 31.4408C29.1105 29.7623 26.5079 29.4237 24.3499 30.3707L23.448 28.3155C26.385 27.0267 29.9351 27.4832 32.4739 29.7747L30.9701 31.4408ZM31.4163 40.158C33.7003 37.6275 33.5005 33.7247 30.9701 31.4408L32.4739 29.7747C35.9244 32.8892 36.1969 38.2112 33.0824 41.6618L31.4163 40.158ZM25.5193 42.0541C27.6135 42.5083 29.881 41.859 31.4163 40.158L33.0824 41.6618C30.9865 43.9839 27.8915 44.8652 25.0436 44.2475L25.5193 42.0541ZM24.8305 42.1232C25.6046 41.7835 26.3218 41.2779 26.9276 40.6068L28.5936 42.1106C27.7709 43.0222 26.7917 43.7136 25.7324 44.1784L24.8305 42.1232ZM26.9276 40.6068C29.2115 38.0764 29.0117 34.1736 26.4813 31.8896L27.9851 30.2235C31.4357 33.338 31.7081 38.6601 28.5936 42.1106L26.9276 40.6068ZM26.4813 31.8896C25.6515 31.1407 24.6773 30.6602 23.661 30.4398L24.1368 28.2464C25.5257 28.5477 26.8569 29.2053 27.9851 30.2235L26.4813 31.8896Z" fill="white" mask="url(#path-11-inside-3_287_3875)"/>
<circle cx="152.706" cy="143.923" r="6.73317" transform="rotate(130.121 152.706 143.923)" fill="white" stroke="white" stroke-width="1.12219"/>
<mask id="path-14-inside-4_287_3875" fill="white">
<path fill-rule="evenodd" clip-rule="evenodd" d="M156 137.298C153.452 136.18 150.376 136.578 148.176 138.563C145.186 141.262 144.95 145.874 147.649 148.865C149.465 150.877 152.146 151.642 154.617 151.106C153.7 150.704 152.852 150.105 152.138 149.314C149.439 146.323 149.675 141.711 152.665 139.012C153.644 138.128 154.797 137.559 156 137.298Z"/>
</mask>
<path fill-rule="evenodd" clip-rule="evenodd" d="M156 137.298C153.452 136.18 150.376 136.578 148.176 138.563C145.186 141.262 144.95 145.874 147.649 148.865C149.465 150.877 152.146 151.642 154.617 151.106C153.7 150.704 152.852 150.105 152.138 149.314C149.439 146.323 149.675 141.711 152.665 139.012C153.644 138.128 154.797 137.559 156 137.298Z" fill="#2A2A4E"/>
<path d="M148.176 138.563L147.425 137.73L147.425 137.73L148.176 138.563ZM156 137.298L156.237 138.395L159.62 137.661L156.451 136.271L156 137.298ZM147.649 148.865L146.816 149.617L146.816 149.617L147.649 148.865ZM154.617 151.106L154.855 152.203L158.237 151.469L155.068 150.078L154.617 151.106ZM152.138 149.314L151.305 150.066L151.305 150.066L152.138 149.314ZM152.665 139.012L153.417 139.845L153.417 139.845L152.665 139.012ZM148.928 139.396C150.788 137.717 153.391 137.379 155.549 138.326L156.451 136.271C153.514 134.982 149.963 135.438 147.425 137.73L148.928 139.396ZM148.482 148.113C146.198 145.583 146.398 141.68 148.928 139.396L147.425 137.73C143.974 140.844 143.702 146.166 146.816 149.617L148.482 148.113ZM154.379 150.009C152.285 150.463 150.017 149.814 148.482 148.113L146.816 149.617C148.912 151.939 152.007 152.82 154.855 152.203L154.379 150.009ZM155.068 150.078C154.294 149.739 153.577 149.233 152.971 148.562L151.305 150.066C152.128 150.977 153.107 151.669 154.166 152.134L155.068 150.078ZM152.971 148.562C150.687 146.032 150.887 142.129 153.417 139.845L151.913 138.179C148.463 141.293 148.19 146.615 151.305 150.066L152.971 148.562ZM153.417 139.845C154.247 139.096 155.221 138.615 156.237 138.395L155.762 136.202C154.373 136.503 153.042 137.16 151.913 138.179L153.417 139.845Z" fill="white" mask="url(#path-14-inside-4_287_3875)"/>
<circle cx="27.2862" cy="36.0765" r="6.73317" transform="rotate(130.121 27.2862 36.0765)" stroke="white" stroke-width="1.12219"/>
<mask id="path-17-inside-5_287_3875" fill="white">
<path fill-rule="evenodd" clip-rule="evenodd" d="M89.6601 0.00084275V14.5877C89.6974 14.5882 89.7347 14.5885 89.7721 14.5885C93.8007 14.5885 97.0664 11.3228 97.0664 7.29426C97.0664 3.26575 93.8007 0 89.7721 0C89.7347 0 89.6974 0.000281585 89.6601 0.00084275Z"/>
</mask>
<path fill-rule="evenodd" clip-rule="evenodd" d="M89.6601 0.00084275V14.5877C89.6974 14.5882 89.7347 14.5885 89.7721 14.5885C93.8007 14.5885 97.0664 11.3228 97.0664 7.29426C97.0664 3.26575 93.8007 0 89.7721 0C89.7347 0 89.6974 0.000281585 89.6601 0.00084275Z" fill="white"/>
<path d="M89.6601 14.5877L89.6432 15.7098L88.5379 15.6931V14.5877H89.6601ZM89.6601 0.00084275H88.5379V-1.10458L89.6432 -1.12122L89.6601 0.00084275ZM88.5379 14.5877V0.00084275H90.7823V14.5877H88.5379ZM89.677 13.4656C89.7087 13.4661 89.7404 13.4663 89.7721 13.4663V15.7107C89.7291 15.7107 89.6861 15.7104 89.6432 15.7098L89.677 13.4656ZM89.7721 13.4663C93.1809 13.4663 95.9442 10.703 95.9442 7.29426H98.1886C98.1886 11.9425 94.4204 15.7107 89.7721 15.7107V13.4663ZM95.9442 7.29426C95.9442 3.88552 93.1809 1.12219 89.7721 1.12219V-1.12219C94.4204 -1.12219 98.1886 2.64598 98.1886 7.29426H95.9442ZM89.7721 1.12219C89.7404 1.12219 89.7087 1.12243 89.677 1.12291L89.6432 -1.12122C89.6861 -1.12187 89.7291 -1.12219 89.7721 -1.12219V1.12219Z" fill="white" mask="url(#path-17-inside-5_287_3875)"/>
<mask id="path-19-inside-6_287_3875" fill="white">
<path fill-rule="evenodd" clip-rule="evenodd" d="M89.6601 165.412V179.999C89.6974 180 89.7347 180 89.7721 180C93.8007 180 97.0664 176.734 97.0664 172.706C97.0664 168.677 93.8007 165.411 89.7721 165.411C89.7347 165.411 89.6974 165.412 89.6601 165.412Z"/>
</mask>
<path fill-rule="evenodd" clip-rule="evenodd" d="M89.6601 165.412V179.999C89.6974 180 89.7347 180 89.7721 180C93.8007 180 97.0664 176.734 97.0664 172.706C97.0664 168.677 93.8007 165.411 89.7721 165.411C89.7347 165.411 89.6974 165.412 89.6601 165.412Z" fill="white"/>
<path d="M89.6601 179.999L89.6432 181.121L88.5379 181.105V179.999H89.6601ZM89.6601 165.412H88.5379V164.307L89.6432 164.29L89.6601 165.412ZM88.5379 179.999V165.412H90.7823V179.999H88.5379ZM89.677 178.877C89.7087 178.878 89.7404 178.878 89.7721 178.878V181.122C89.7291 181.122 89.6861 181.122 89.6432 181.121L89.677 178.877ZM89.7721 178.878C93.1809 178.878 95.9442 176.114 95.9442 172.706H98.1886C98.1886 177.354 94.4204 181.122 89.7721 181.122V178.878ZM95.9442 172.706C95.9442 169.297 93.1809 166.534 89.7721 166.534V164.289C94.4204 164.289 98.1886 168.057 98.1886 172.706H95.9442ZM89.7721 166.534C89.7404 166.534 89.7087 166.534 89.677 166.534L89.6432 164.29C89.6861 164.29 89.7291 164.289 89.7721 164.289V166.534Z" fill="white" mask="url(#path-19-inside-6_287_3875)"/>
<path d="M67.4658 78.2002C82.5186 62.3267 96.7493 62.3268 111.802 78.2002C96.7493 94.0737 82.5186 94.0736 67.4658 78.2002Z" stroke="white" stroke-width="1.53945"/>
<circle cx="89.6341" cy="78.2002" r="9.43535" stroke="white" stroke-width="1.65532"/>
<circle cx="89.634" cy="78.2002" r="4.74802" stroke="white" stroke-width="1.53945"/>
<path d="M85.3132 100.412L89.6335 93.6849L93.9537 100.412L89.6335 124.359L85.3132 100.412Z" stroke="white" stroke-width="1.53945"/>
<path d="M96.0835 99.4988L96.7351 93.3043L102.883 94.3064L109.266 109.713L96.0835 99.4988Z" stroke="white" stroke-width="1.53945"/>
<path d="M83.1551 99.5333L82.532 93.3358L76.3799 94.3096L69.9259 109.686L83.1551 99.5333Z" stroke="white" stroke-width="1.53945"/>
<path d="M113.341 70.4003L115.907 67.6293L118.524 70.4003L114.265 74.6595C94.4776 51.1777 73.0074 64.8754 64.7457 74.6595L59.7168 70.4003L61.5641 67.6293L64.7457 70.4003" stroke="white" stroke-width="1.53945"/>
<path d="M78.4979 29.9931C79.4402 33.3515 77.4338 35.7257 74.9564 36.4208C72.4651 37.1198 69.5165 36.1357 68.5743 32.7774C67.632 29.419 69.6384 27.0448 72.1296 26.3458C74.6071 25.6507 77.5557 26.6348 78.4979 29.9931ZM76.8876 30.4449C76.2543 28.1877 74.2623 27.5439 72.5969 28.0112C70.9177 28.4823 69.5651 30.0644 70.1984 32.3217C70.8317 34.5789 72.8099 35.2265 74.4891 34.7554C76.1545 34.2882 77.5209 32.7022 76.8876 30.4449ZM74.0917 32.8626L73.9127 32.9128C73.6001 32.169 72.8526 31.6215 72.1507 31.8185L72.0966 31.6258C72.7986 31.4289 73.1522 30.5724 73.0323 29.7746L73.2112 29.7244C73.5376 30.4643 74.2713 31.0157 74.987 30.8148L75.0411 31.0075C74.3254 31.2083 73.9855 32.0609 74.0917 32.8626Z" fill="white"/>
<path d="M81.2331 32.6087L80.9629 29.4897L84.0758 28.8183C86.1874 28.3484 85.9858 25.8548 83.8352 26.0411L80.6878 26.3138C80.5995 25.4605 80.4505 24.8995 79.8238 24.9537L79.8078 24.7686L83.6958 24.4318C87.6693 24.0876 88.476 28.2649 85.5776 29.9222L87.3262 32.0521C87.3429 32.0794 87.3583 32.0924 87.3596 32.1066L88.3536 33.3119C88.6681 33.629 88.9726 33.8322 89.3429 33.8002L89.359 33.9853L86.1688 34.2617L86.1527 34.0765C86.58 34.0395 86.4829 33.7466 86.205 33.3546L83.8914 30.4987L82.7928 30.7374L82.9421 32.4606C83.0396 33.5857 83.105 34.3405 83.8456 34.2764L83.8616 34.4615L80.6714 34.7379L80.6554 34.5528C81.396 34.4886 81.3306 33.7338 81.2331 32.6087Z" fill="white"/>
<path d="M90.95 27.0369L92.6591 27.1841L92.1954 32.5677L93.3633 32.6683C97.8639 33.0559 98.4608 26.292 93.9459 25.9031L91.0689 25.6554C91.1283 24.7996 91.0764 24.2356 90.4498 24.1816L90.4657 23.9964L94.1545 24.3141C97.556 24.6358 99.0374 27.2599 98.824 29.7381C98.6106 32.2163 96.7035 34.5343 93.2959 34.2839L89.6071 33.9662L89.6231 33.781C90.3637 33.8448 90.4287 33.0899 90.5256 31.9648L90.95 27.0369Z" fill="white"/>
<path d="M110.827 32.843C109.874 36.198 106.922 37.1719 104.446 36.4682C101.958 35.7606 99.9596 33.3793 100.914 30.0243C101.867 26.6692 104.819 25.6954 107.308 26.403C109.783 27.1067 111.781 29.4879 110.827 32.843ZM109.219 32.3856C109.86 30.1305 108.499 28.5398 106.835 28.0668C105.158 27.5898 103.177 28.2305 102.536 30.4856C101.895 32.7406 103.242 34.3274 104.92 34.8044C106.583 35.2774 108.578 34.6406 109.219 32.3856ZM105.571 32.9833L105.392 32.9325C105.515 32.1351 105.164 31.2775 104.463 31.0781L104.518 30.8856C105.219 31.0849 105.968 30.5401 106.284 29.7974L106.462 29.8482C106.353 30.6495 106.69 31.5033 107.405 31.7065L107.351 31.8991C106.636 31.6958 105.9 32.2446 105.571 32.9833Z" fill="white"/>
<path d="M115.968 35.2446C116.203 34.7866 116.754 34.6194 117.199 34.8475C117.67 35.0886 117.831 35.6208 117.597 36.0789C117.362 36.5369 116.829 36.7299 116.359 36.4887C115.913 36.2606 115.733 35.7027 115.968 35.2446Z" fill="white"/>
<path d="M122.983 41.4323L121.601 40.4161L124.344 36.6846C125.013 35.7748 125.462 35.1644 124.863 34.724L124.973 34.5743L127.553 36.4712L127.443 36.6209C126.844 36.1806 126.395 36.791 125.726 37.7008L122.983 41.4323ZM126.423 45.1509L124.862 46.9127L119.046 42.6362L119.156 42.4864C119.662 42.859 120.073 42.4692 120.593 41.7866L124.14 44.3949C125.05 45.0639 125.822 45.6312 126.262 45.0324L126.423 45.1509Z" fill="white"/>
<path d="M137.042 47.7911L136.533 48.2926C134.567 50.2284 132.175 49.755 130.75 48.3085C129.336 46.8723 128.89 44.463 130.856 42.5273L131.365 42.0258C132.17 41.2334 132.71 40.7019 132.188 40.1722L132.321 40.0418L134.567 42.3235L134.435 42.4539C133.973 41.9853 133.506 42.3456 132.854 42.9673L132.059 43.7496C130.949 44.8428 131.222 46.2197 132.034 47.0448C132.856 47.88 134.219 48.1635 135.329 47.0703L135.838 46.5688C136.643 45.7764 137.183 45.2449 136.661 44.7152L136.794 44.5848L139.041 46.8665L138.908 46.9969C138.387 46.4672 137.847 46.9988 137.042 47.7911ZM128.263 51.0388L128.133 50.9064C128.633 50.2734 128.761 49.3646 128.24 48.835L128.372 48.7046C128.893 49.2343 129.814 49.11 130.445 48.6296L130.575 48.7621C130.095 49.3952 129.957 50.314 130.478 50.8437L130.346 50.9741C129.824 50.4444 128.914 50.5586 128.263 51.0388Z" fill="white"/>
<path d="M143.592 52.837C144.201 53.7193 144.496 54.801 144.454 55.8724L142.307 56.9897L142.193 56.825C143.087 56.2078 142.737 54.6432 142.249 53.8858L142.224 53.8505C139.677 50.0852 133.846 54.0935 136.412 57.811C136.964 58.6109 138.145 59.2897 139.146 58.9284L139.26 59.0931L137.537 60.6477L137.525 60.6558L137.517 60.6441C136.246 60.288 135.613 59.6479 134.882 58.5892C131.274 52.9852 139.726 47.2373 143.592 52.837ZM138.434 54.6257L138.587 54.5202C139.001 55.1201 139.926 55.1765 140.642 54.8041L140.747 54.957C140.154 55.5059 139.87 56.3789 140.293 56.9906L140.14 57.0962C139.717 56.4845 138.801 56.4399 138.077 56.8006L137.971 56.6476C138.573 56.1105 138.848 55.2257 138.434 54.6257Z" fill="white"/>
<path d="M144.409 60.2563L144.323 60.0916C144.986 59.632 145.374 58.8002 145.03 58.1414L145.194 58.0553C145.539 58.7141 146.456 58.8637 147.199 58.5881L147.285 58.7528C146.641 59.2184 146.241 60.0569 146.585 60.7157L146.421 60.8018C146.076 60.143 145.172 59.9867 144.409 60.2563ZM138.751 64.8919L137.268 62.0542L137.432 61.9681C137.777 62.6269 138.448 62.2759 139.449 61.7526L141.717 60.5671C142.717 60.0439 143.389 59.6929 143.045 59.0341L143.209 58.948L144.693 61.7857L144.528 61.8718C144.184 61.2131 143.512 61.5641 142.511 62.0873L140.244 63.2728C139.243 63.7961 138.572 64.1471 138.916 64.8058L138.751 64.8919Z" fill="white"/>
<path d="M150.248 69.4236L148.02 69.9165L147.954 69.7427C148.575 69.4461 149.415 67.8286 148.781 66.1577C148.478 65.3556 147.903 64.6867 146.967 65.0412C146.687 65.1476 146.52 65.3941 146.429 65.719L144.85 65.2627C145.08 64.4571 145.527 63.783 146.423 63.4436C148.254 62.7496 149.741 63.9291 150.379 65.6135C150.84 66.8299 150.775 68.2306 150.248 69.4236ZM143.954 68.3845L143.893 68.2241C144.601 67.8335 145.085 67.0538 144.822 66.3587L145.009 66.2878C145.272 66.9829 146.152 67.2459 146.941 67.0692L147.002 67.2296C146.294 67.6202 145.809 68.3999 146.073 69.095L145.886 69.1659C145.622 68.4708 144.743 68.2078 143.954 68.3845ZM140.56 65.3594L140.555 65.346L142.648 65.1799L142.714 65.3537C141.627 66.117 141.474 67.9329 141.91 69.0825C142.178 69.791 142.846 70.7457 143.728 70.4114C144.049 70.2898 144.242 70.0332 144.368 69.6797L145.951 70.2264C145.693 70.997 145.195 71.6596 144.272 72.0091C142.454 72.6979 140.92 71.2308 140.312 69.6267C139.791 68.2499 139.748 66.6455 140.56 65.3594Z" fill="white"/>
<path d="M148.031 76.5327C148.536 76.434 149.009 76.7641 149.104 77.2551C149.206 77.7742 148.887 78.2298 148.382 78.3285C147.877 78.4272 147.396 78.1279 147.295 77.6087C147.199 77.1177 147.526 76.6313 148.031 76.5327Z" fill="white"/>
<path d="M151.281 84.8648L151.268 84.6794C152.06 84.5256 152.75 83.9201 152.7 83.1785L152.885 83.166C152.935 83.9076 153.714 84.4137 154.506 84.4605L154.518 84.6459C153.741 84.8131 153.037 85.4194 153.088 86.1611L152.902 86.1736C152.852 85.432 152.087 84.9249 151.281 84.8648ZM144.235 86.8313L144.019 83.6365L144.205 83.624C144.255 84.3656 145.011 84.3145 146.137 84.2383L148.69 84.0657C149.817 83.9895 150.573 83.9384 150.523 83.1967L150.708 83.1842L150.924 86.379L150.739 86.3915C150.689 85.6499 149.933 85.701 148.806 85.7772L146.253 85.9498C145.126 86.026 144.371 86.0771 144.421 86.8188L144.235 86.8313Z" fill="white"/>
<path d="M154.423 87.807L154.318 89.5621L147.272 94.5815L152.209 94.8776C153.179 94.9358 153.812 94.9021 153.852 94.2314L154.037 94.2426L153.846 97.4389L153.66 97.4278C153.705 96.6858 152.948 96.6404 151.821 96.5728L145.97 96.2219C144.843 96.1543 144.087 96.1089 144.042 96.851L143.857 96.8398L143.973 94.8992L152.88 88.4591C153.737 88.5105 154.2 88.4237 154.238 87.7959L154.423 87.807ZM146.459 88.074L149.798 88.2743L149.696 89.9866L146.356 89.7863C145.229 89.7187 144.473 89.6734 144.428 90.4154L144.243 90.4043L144.435 87.2079L144.62 87.219C144.576 87.961 145.332 88.0064 146.459 88.074Z" fill="white"/>
<path d="M144.531 97.9076L148.436 101.063L147.998 102.796L146.32 101.442L145.535 104.547L151.585 103.423C152.334 103.318 152.54 102.795 152.617 102.49L152.797 102.535L152.194 104.919L142.436 106.771C141.874 106.894 141.523 107.056 141.408 107.513L141.227 107.468L142.013 104.363L142.193 104.409C142.021 105.088 142.798 105.048 143.8 104.874L144.947 100.343C144.148 99.7129 143.483 99.3088 143.315 99.9741L143.135 99.9285L143.917 96.838L144.097 96.8836C143.992 97.2994 144.171 97.5807 144.531 97.9076Z" fill="white"/>
<path d="M150.344 111.379L149.611 112.977L141.227 115.11L145.723 117.171C146.607 117.576 147.209 117.773 147.489 117.162L147.657 117.24L146.323 120.15L146.154 120.073C146.464 119.397 145.775 119.082 144.749 118.611L139.421 116.169C138.394 115.698 137.705 115.383 137.396 116.058L137.227 115.981L138.037 114.214L148.67 111.429C149.449 111.786 149.913 111.873 150.175 111.301L150.344 111.379ZM142.822 108.749L145.863 110.143L145.148 111.702L142.107 110.308C141.08 109.838 140.392 109.522 140.082 110.198L139.913 110.12L141.247 107.209L141.416 107.287C141.106 107.962 141.795 108.278 142.822 108.749Z" fill="white"/>
<path d="M141.969 121.584L142.067 121.426C142.8 121.765 143.713 121.677 144.106 121.046L144.264 121.144C143.871 121.775 144.207 122.641 144.822 123.142L144.723 123.3C143.996 122.981 143.07 123.061 142.677 123.692L142.519 123.594C142.912 122.963 142.588 122.104 141.969 121.584ZM135.104 119.059L136.798 116.341L136.955 116.439C136.562 117.07 137.205 117.471 138.164 118.068L140.336 119.421C141.294 120.018 141.937 120.419 142.33 119.788L142.488 119.886L140.795 122.604L140.637 122.506C141.03 121.875 140.387 121.474 139.429 120.877L137.257 119.524C136.298 118.927 135.655 118.526 135.262 119.157L135.104 119.059Z" fill="white"/>
<path d="M137.245 131.035L135.68 129.373L135.796 129.227C136.369 129.609 138.188 129.502 139.298 128.102C139.832 127.43 140.112 126.594 139.328 125.972C139.093 125.785 138.796 125.769 138.47 125.857L138.053 124.267C138.863 124.051 139.671 124.091 140.421 124.686C141.955 125.903 141.704 127.784 140.584 129.195C139.776 130.214 138.539 130.875 137.245 131.035ZM134.913 125.096L135.02 124.962C135.718 125.37 136.635 125.386 137.097 124.804L137.254 124.929C136.792 125.511 137.017 126.401 137.573 126.988L137.466 127.122C136.768 126.714 135.85 126.698 135.388 127.28L135.231 127.156C135.693 126.573 135.469 125.683 134.913 125.096ZM135.773 120.632L135.782 120.621L136.996 122.333L136.881 122.479C135.668 121.936 134.031 122.735 133.267 123.699C132.796 124.292 132.318 125.354 133.057 125.941C133.325 126.154 133.645 126.189 134.013 126.116L134.354 127.755C133.56 127.928 132.736 127.84 131.963 127.227C130.44 126.018 130.914 123.949 131.981 122.605C132.896 121.452 134.252 120.594 135.773 120.632Z" fill="white"/>
<path d="M129.946 132.8C130.288 133.185 130.243 133.76 129.869 134.092C129.473 134.442 128.918 134.399 128.577 134.014C128.236 133.629 128.25 133.062 128.645 132.712C129.02 132.38 129.605 132.415 129.946 132.8Z" fill="white"/>
<path d="M127.272 141.546L125.767 142.455L117.636 139.498L120.193 143.732C120.695 144.565 121.081 145.066 121.656 144.719L121.752 144.878L119.011 146.533L118.915 146.374C119.551 145.99 119.16 145.341 118.576 144.374L115.547 139.357C114.963 138.39 114.572 137.741 113.936 138.125L113.839 137.966L115.504 136.962L125.86 140.645C126.303 141.38 126.637 141.712 127.176 141.387L127.272 141.546ZM122.535 135.138L124.264 138.002L122.795 138.888L121.067 136.025C120.483 135.058 120.091 134.409 119.455 134.793L119.359 134.634L122.1 132.979L122.196 133.139C121.56 133.523 121.951 134.171 122.535 135.138Z" fill="white"/>
<path d="M113.164 139.218L112.776 144.224L111.1 144.844L111.265 142.695L108.262 143.807L112.615 148.155C113.126 148.713 113.674 148.587 113.969 148.477L114.034 148.652L111.728 149.505L104.674 142.513C104.254 142.12 103.922 141.922 103.479 142.086L103.415 141.912L106.418 140.8L106.482 140.975C105.825 141.218 106.298 141.836 107.009 142.563L111.393 140.941C111.459 139.925 111.416 139.149 110.772 139.387L110.708 139.213L113.697 138.106L113.762 138.28C113.36 138.429 113.229 138.737 113.164 139.218Z" fill="white"/>
<path d="M105.086 151.671L96.9811 153.127L96.5668 150.819L96.7497 150.786C96.881 151.518 97.6268 151.384 98.7383 151.184L102.762 150.462C103.874 150.262 104.62 150.128 104.488 149.397L104.671 149.364L105.086 151.671ZM100.489 144.436L101.364 149.304L99.6751 149.607L98.801 144.739C98.6014 143.628 98.4675 142.882 97.7358 143.013L97.703 142.83L100.855 142.264L100.888 142.447C100.156 142.579 100.29 143.324 100.489 144.436Z" fill="white"/>
<path d="M86.3839 151.386L86.376 150.672C86.3455 147.913 88.3458 146.518 90.3756 146.496C92.3911 146.474 94.436 147.823 94.4666 150.582L94.4745 151.297C94.487 152.426 94.4954 153.184 95.2387 153.175L95.2407 153.361L92.0388 153.397L92.0367 153.211C92.6943 153.204 92.7593 152.617 92.7636 151.716L92.7512 150.601C92.734 149.043 91.5533 148.284 90.3955 148.297C89.2234 148.31 88.0741 149.095 88.0913 150.653L88.0992 151.367C88.1117 152.497 88.1201 153.254 88.8634 153.246L88.8654 153.432L85.6635 153.467L85.6615 153.281C86.4048 153.273 86.3964 152.516 86.3839 151.386ZM90.1346 142.81L90.3205 142.808C90.4294 143.607 90.9949 144.33 91.7382 144.322L91.7403 144.508C90.997 144.516 90.4477 145.266 90.3564 146.053L90.1705 146.055C90.0475 145.27 89.4818 144.533 88.7385 144.541L88.7364 144.355C89.4797 144.347 90.0291 143.612 90.1346 142.81Z" fill="white"/>
<path d="M84.2316 145.342L83.7335 148.433L80.5508 148.326C78.3884 148.267 77.9762 150.734 80.1073 151.078L83.2262 151.58C83.1039 152.429 83.1117 153.01 83.7327 153.11L83.7031 153.293L79.8502 152.672C75.9127 152.038 76.1485 147.79 79.3634 146.889L78.1867 144.397C78.1771 144.366 78.1653 144.35 78.1676 144.336L77.4973 142.925C77.2696 142.541 77.0238 142.269 76.6568 142.21L76.6864 142.027L79.8477 142.536L79.8181 142.72C79.3948 142.651 79.4175 142.959 79.5915 143.407L81.1393 146.741L82.2628 146.777L82.5381 145.069C82.7178 143.954 82.8383 143.206 82.1045 143.088L82.134 142.905L85.2954 143.414L85.2658 143.598C84.5319 143.479 84.4113 144.227 84.2316 145.342Z" fill="white"/>
<path d="M75.7797 142.704L72.2948 146.319L70.6074 145.731L72.1023 144.178L69.0784 143.124L69.6692 149.249C69.7087 150.005 70.2116 150.256 70.5086 150.359L70.4474 150.535L68.1256 149.726L67.1336 139.843C67.06 139.272 66.9293 138.909 66.4838 138.754L66.5449 138.578L69.5688 139.632L69.5076 139.807C68.8462 139.577 68.8176 140.354 68.9033 141.368L73.3175 142.906C74.0147 142.165 74.4753 141.538 73.8274 141.312L73.8885 141.137L76.8988 142.186L76.8377 142.361C76.4327 142.22 76.1368 142.374 75.7797 142.704Z" fill="white"/>
<path d="M60.8145 141.056C60.5585 141.503 59.9998 141.643 59.5657 141.395C59.1069 141.131 58.9712 140.592 59.2272 140.146C59.4833 139.699 60.0243 139.532 60.4831 139.795C60.9172 140.044 61.0705 140.61 60.8145 141.056Z" fill="white"/>
<path d="M52.8444 131.793L50.805 138.923C50.3169 139.465 50.225 140.036 50.6497 140.419L50.5253 140.557L49.06 139.236L51.2104 131.513L43.7617 134.46L42.2858 133.13L42.4102 132.992C42.9624 133.489 43.5844 132.992 44.2131 132.038L47.4993 127.09C48.2025 126.011 48.5004 125.51 47.9589 125.022L48.0833 124.884L50.4617 127.028L50.3373 127.166C49.7852 126.668 49.3522 127.298 48.7235 128.251L46.5096 131.625L50.6347 129.974C51.7943 129.499 52.3335 128.965 51.9618 128.63L52.0863 128.492L54.1037 130.311L53.9792 130.449C53.6288 130.133 53.1331 130.918 52.8444 131.793ZM55.9362 134.811L53.3535 136.929L52.09 135.79L54.712 133.65C55.5955 132.926 56.1878 132.44 55.6356 131.942L55.7601 131.804L58.1385 133.948L58.014 134.086C57.4619 133.588 56.975 133.958 55.9362 134.811Z" fill="white"/>
<path d="M38.0268 119.067C40.8821 117.064 43.7877 118.168 45.2656 120.275C46.7518 122.393 46.802 125.501 43.9467 127.504C41.0915 129.508 38.1859 128.403 36.6997 126.285C35.2218 124.179 35.1715 121.07 38.0268 119.067ZM38.9875 120.436C37.0684 121.783 37.1222 123.875 38.1157 125.291C39.1174 126.719 41.0588 127.47 42.9779 126.123C44.897 124.777 44.8514 122.696 43.8497 121.268C42.8562 119.852 40.9066 119.09 38.9875 120.436ZM42.196 122.271L42.3028 122.423C41.7049 122.965 41.4365 123.852 41.8553 124.449L41.6915 124.564C41.2727 123.967 40.3475 123.918 39.6347 124.295L39.528 124.143C40.1176 123.59 40.3942 122.715 39.9672 122.106L40.131 121.991C40.558 122.6 41.475 122.637 42.196 122.271Z" fill="white"/>
<path d="M39.494 115.513L36.6405 116.801L34.9761 114.086C33.8334 112.249 31.5474 113.265 32.4353 115.233L33.7349 118.112C32.959 118.478 32.479 118.805 32.7377 119.378L32.5683 119.454L30.963 115.897C29.3223 112.262 32.9968 110.117 35.5204 112.303L36.9511 109.948C36.9713 109.923 36.9784 109.905 36.9915 109.899L37.7995 108.562C37.9946 108.16 38.0855 107.805 37.9326 107.466L38.102 107.39L39.4192 110.309L39.2498 110.385C39.0734 109.994 38.8292 110.183 38.5513 110.575L36.6228 113.704L37.2118 114.661L38.7884 113.95C39.8177 113.485 40.5083 113.173 40.2025 112.496L40.3719 112.419L41.6891 115.338L41.5197 115.414C41.2139 114.737 40.5234 115.049 39.494 115.513Z" fill="white"/>
<path d="M27.3926 102.14L29.6593 101.873L29.7074 102.052C29.0595 102.285 28.0625 103.811 28.5253 105.537C28.7475 106.365 29.2522 107.088 30.2187 106.829C30.5087 106.751 30.699 106.522 30.8219 106.208L32.3477 106.82C32.0385 107.599 31.5255 108.225 30.6004 108.473C28.7088 108.98 27.3478 107.658 26.8813 105.918C26.5443 104.662 26.7496 103.275 27.3926 102.14ZM33.5516 103.804L33.596 103.97C32.8525 104.287 32.2927 105.015 32.4852 105.733L32.2919 105.784C32.0994 105.067 31.2508 104.717 30.448 104.814L30.4035 104.648C31.1471 104.33 31.7069 103.603 31.5144 102.885L31.7077 102.833C31.9002 103.551 32.7488 103.901 33.5516 103.804ZM36.6254 107.153L36.6291 107.167L34.5305 107.123L34.4824 106.944C35.6399 106.293 35.9735 104.501 35.655 103.314C35.4588 102.582 34.8901 101.565 33.9789 101.81C33.6475 101.899 33.4296 102.135 33.2689 102.474L31.7485 101.771C32.0827 101.031 32.6445 100.421 33.5972 100.166C35.475 99.662 36.8548 101.275 37.2991 102.932C37.6805 104.354 37.5621 105.955 36.6254 107.153Z" fill="white"/>
<path d="M30.2481 94.9643C29.7354 95.0087 29.3008 94.6302 29.2577 94.1318C29.212 93.6048 29.5775 93.1858 30.0902 93.1413C30.6029 93.0969 31.0492 93.4457 31.0949 93.9726C31.138 94.4711 30.7608 94.9199 30.2481 94.9643Z" fill="white"/>
<path d="M33.304 83.2659L26.2842 85.6579C25.561 85.5658 25.0391 85.8164 24.9669 86.3836L24.7825 86.3602L25.0317 84.4032L32.6017 81.7642L25.9325 77.327L26.1834 75.3559L26.3677 75.3794C26.2739 76.1168 27.0376 76.3437 28.1795 76.3161L34.1179 76.193C35.4053 76.1552 35.9869 76.1139 36.079 75.3907L36.2634 75.4142L35.859 78.5907L35.6746 78.5672C35.7685 77.8298 35.0043 77.8334 33.8624 77.8609L29.8283 77.9671L33.5374 80.4135C34.5891 81.095 35.3353 81.2332 35.3984 80.7369L35.5828 80.7603L35.2398 83.4547L35.0555 83.4312C35.115 82.9632 34.1876 83.0037 33.304 83.2659ZM32.5887 87.5268L29.3761 86.6135L29.5909 84.926L32.8442 85.8589C33.9428 86.1717 34.68 86.3808 34.7738 85.6434L34.9582 85.6669L34.5538 88.8434L34.3695 88.8199C34.4633 88.0825 33.8822 87.8932 32.5887 87.5268Z" fill="white"/>
<path d="M35.7984 74.5833L32.209 71.0723L32.8092 69.3892L34.3514 70.8953L35.427 67.8792L29.298 68.4254C28.5422 68.4594 28.2876 68.9605 28.182 69.2567L28.0069 69.1943L28.8328 66.8784L38.7224 65.9583C39.2936 65.8888 39.658 65.7608 39.8165 65.3164L39.9915 65.3789L38.9159 68.3949L38.7409 68.3325C38.9761 67.6728 38.1992 67.6385 37.1847 67.7169L35.6145 72.1198C36.3505 72.8224 36.9738 73.2875 37.2043 72.6412L37.3793 72.7036L36.3086 75.7062L36.1335 75.6438C36.2776 75.2399 36.1255 74.9428 35.7984 74.5833Z" fill="white"/>
<path d="M38.3016 61.9186L37.4699 63.4189L33.419 61.1735C32.4313 60.626 31.7686 60.2587 31.4082 60.9088L31.2457 60.8187L32.7981 58.0181L32.9607 58.1082C32.6003 58.7583 33.2629 59.1256 34.2507 59.6731L38.3016 61.9186ZM41.5511 58.0319L43.4976 59.356L39.9977 65.67L39.8352 65.5799C40.1401 65.0298 39.701 64.672 38.9578 64.2436L41.0923 60.3928C41.6398 59.405 42.1042 58.5673 41.454 58.2069L41.5511 58.0319Z" fill="white"/>
<path d="M42.7761 47.1496L43.3393 47.5898C45.513 49.2888 45.353 51.722 44.103 53.3214C42.8617 54.9094 40.5304 55.6637 38.3566 53.9646L37.7935 53.5245C36.9037 52.829 36.3068 52.3624 35.849 52.9481L35.7026 52.8337L37.6745 50.3108L37.8209 50.4252C37.416 50.9433 37.8337 51.3606 38.5345 51.9264L39.413 52.6131C40.6407 53.5726 41.9708 53.1245 42.6838 52.2122C43.4057 51.2886 43.5106 49.9009 42.2829 48.9414L41.7197 48.5012C40.83 47.8057 40.233 47.3392 39.7753 47.9248L39.6288 47.8104L41.6008 45.2875L41.7472 45.4019C41.2894 45.9876 41.8864 46.4542 42.7761 47.1496ZM47.1321 55.4349L47.0176 55.5814C46.3253 55.1672 45.4075 55.1575 44.9498 55.7432L44.8033 55.6287C45.2611 55.0431 45.0188 54.146 44.4609 53.583L44.5754 53.4366C45.2652 53.8307 46.1943 53.8492 46.652 53.2635L46.7984 53.3779C46.3407 53.9636 46.5718 54.8518 47.1321 55.4349Z" fill="white"/>
<path d="M52.2213 46.322L45.4515 43.2937C44.9846 42.7338 44.4318 42.562 43.9926 42.9282L43.8736 42.7855L45.3886 41.522L52.7295 44.744L50.8667 36.9532L52.3927 35.6805L52.5117 35.8232C51.9408 36.2993 52.3456 36.9855 53.2007 37.7429L57.6335 41.6964C58.602 42.5453 59.0561 42.9112 59.616 42.4442L59.735 42.587L57.2759 44.6379L57.1569 44.4952C57.7277 44.0191 57.1656 43.5013 56.3106 42.7439L53.284 40.0747L54.3345 44.392C54.6406 45.6072 55.093 46.2165 55.4772 45.896L55.5962 46.0388L53.5104 47.7784L53.3914 47.6357C53.7536 47.3335 53.0469 46.7316 52.2213 46.322ZM48.796 48.9554L47.0652 46.0989L48.3716 45.0094L50.1189 47.9079C50.7105 48.885 51.1079 49.5401 51.6788 49.064L51.7978 49.2067L49.3387 51.2577L49.2196 51.115C49.7905 50.6388 49.4938 50.1045 48.796 48.9554Z" fill="white"/>
<path d="M61.014 36.4091C60.7755 35.9531 60.9575 35.4063 61.4009 35.1745C61.8696 34.9294 62.3971 35.1053 62.6355 35.5614C62.8739 36.0175 62.724 36.5637 62.2552 36.8087C61.8118 37.0405 61.2524 36.8652 61.014 36.4091Z" fill="white"/>
</svg>
