<svg width="250" height="250" viewBox="0 0 250 250" fill="none" xmlns="http://www.w3.org/2000/svg">
<path fill-rule="evenodd" clip-rule="evenodd" d="M119.019 199.325L125 250L130.981 199.325C147.685 197.999 162.84 191.168 174.629 180.646L203.128 203.128L180.646 174.629C191.168 162.84 197.999 147.685 199.325 130.981L250 125L199.325 119.019C197.996 102.279 191.139 87.0953 180.578 75.295L203.128 46.7104L174.533 69.2682C162.757 58.7949 147.64 51.9972 130.981 50.675L125 0L119.019 50.675C102.324 52 87.1778 58.8242 75.3912 69.3359L46.7104 46.7104L69.3359 75.3912C58.8242 87.1778 52 102.324 50.675 119.019L0 125L50.675 130.981C51.9972 147.64 58.7949 162.757 69.2682 174.533L46.7105 203.128L75.295 180.578C87.0953 191.139 102.279 197.996 119.019 199.325ZM131.786 192.501C146.036 191.085 158.988 185.26 169.259 176.41L154.768 164.978C148.74 169.474 141.661 172.639 133.965 174.036L131.786 192.501ZM176.41 169.259C185.26 158.988 191.085 146.036 192.501 131.786L174.036 133.965C172.639 141.661 169.474 148.74 164.978 154.768L176.41 169.259ZM192.501 118.214C191.082 103.928 185.231 90.9468 176.343 80.6634L164.916 95.1488C169.445 101.195 172.632 108.304 174.036 116.035L192.501 118.214ZM169.161 73.5058C158.906 64.7026 145.99 58.9103 131.786 57.4994L133.965 75.9637C141.616 77.3533 148.657 80.4892 154.662 84.9434L169.161 73.5058ZM118.214 57.4994C103.974 58.9138 91.0293 64.7318 80.7615 73.5724L95.2542 85.0053C101.278 80.5182 108.349 77.3597 116.035 75.9637L118.214 57.4994ZM73.5724 80.7614C64.7318 91.0293 58.9138 103.974 57.4994 118.214L75.9637 116.035C77.3597 108.349 80.5182 101.278 85.0053 95.2542L73.5724 80.7614ZM57.4994 131.786C58.9103 145.99 64.7026 158.906 73.5058 169.161L84.9434 154.662C80.4892 148.657 77.3533 141.616 75.9637 133.965L57.4994 131.786ZM80.6634 176.343L95.1488 164.916C101.195 169.445 108.304 172.632 116.035 174.036L118.214 192.501C103.928 191.082 90.9468 185.231 80.6634 176.343ZM84.9153 125C84.9153 147.138 102.862 165.085 125 165.085C147.138 165.085 165.085 147.138 165.085 125C165.085 102.862 147.138 84.9153 125 84.9153C102.862 84.9153 84.9153 102.862 84.9153 125Z" fill="white"/>
</svg>
