<svg width="183" height="203" viewBox="0 0 183 203" fill="none" xmlns="http://www.w3.org/2000/svg">
<path d="M82.4684 99.2682L87.7587 87.788H92.2572L89.9899 92.7184H98.0513L91.5734 78.647C90.8537 76.8836 89.4501 76.7036 88.6584 76.7036V76.2358H94.8483L105.393 98.9083C106.041 100.204 106.652 100.96 107.84 100.96V101.427H99.7787V100.96C101.542 100.96 100.966 99.0883 99.9227 96.749H88.1545C87.1109 99.0883 86.5351 100.96 88.2625 100.96V101.427H80.2372V100.96C81.3168 100.96 81.8926 100.348 82.4684 99.2682Z" fill="white"/>
<path fill-rule="evenodd" clip-rule="evenodd" d="M90.3264 0H88.505V0.192511C89.275 0.192511 89.275 0.977363 89.275 2.14724V8.21873C89.275 9.3886 89.275 10.1734 88.505 10.1734V10.366H91.8221V10.1734C91.052 10.1734 91.052 9.3886 91.052 8.21873V3.70213L96.4867 10.366H98.5007V10.1734C97.7307 10.1734 97.7307 9.3886 97.7307 8.21873V2.14724C97.7307 0.977363 97.7307 0.192511 98.5007 0.192511V0H95.1836V0.192511C95.8796 0.192511 95.9536 0.844086 95.9536 1.85106V6.97481L90.3264 0ZM93.8081 15.0459C93.7399 14.6204 93.1275 14.6204 93.0593 15.0459L85.5984 61.5674C82.7606 62.3725 80.1034 63.6072 77.7016 65.1966L50.4615 45.4863C50.1124 45.2336 49.6794 45.6666 49.932 46.0158L69.6424 73.2558C68.0467 75.667 66.8087 78.3355 66.0038 81.1858L19.454 88.6512C19.0285 88.7194 19.0285 89.3318 19.454 89.4L66.0607 96.8746C66.8689 99.6584 68.091 102.266 69.6562 104.627L57.2958 121.709C59.7358 121.93 62.122 122.128 64.4357 122.304L77.7303 112.684C80.1156 114.258 82.752 115.483 85.5665 116.285L86.7231 123.497C89.9051 123.59 92.4339 123.623 94.1284 123.62C95.5672 123.623 97.6074 123.599 100.138 123.535L101.306 116.251C104.084 115.446 106.687 114.229 109.044 112.67L122.494 122.403C124.788 122.235 127.158 122.045 129.586 121.832L117.116 104.598C118.668 102.25 119.882 99.6591 120.687 96.8938L167.413 89.4C167.839 89.3318 167.839 88.7194 167.413 88.6512L120.744 81.1666C119.942 78.3349 118.713 75.6828 117.13 73.2845L136.861 46.0158C137.114 45.6666 136.681 45.2336 136.331 45.4863L109.072 65.2104C106.699 63.6367 104.075 62.4097 101.274 61.6017L93.8081 15.0459ZM109.157 155.467C104.394 155.579 99.3734 155.522 94.1284 155.246C88.4453 155.545 83.0262 155.588 77.9111 155.435V159.468H89.6284V194.308C80.9576 193.019 71.7009 187.746 67.9514 181.145L74.0053 175.091L58.3822 163.374V175.091C58.3822 190.246 77.5986 202.432 93.5342 202.432C109.47 202.432 128.686 190.246 128.686 175.091V163.374L113.063 175.091L119.117 181.145C115.367 187.746 106.111 193.019 97.44 194.308V159.468H109.157V155.467ZM78.3377 74.4806C74.7351 78.229 72.5205 83.3213 72.5205 88.9308C72.5205 100.449 81.8581 109.787 93.3766 109.787C104.895 109.787 114.233 100.449 114.233 88.9308C114.233 77.4123 104.895 68.0747 93.3766 68.0747C87.7671 68.0747 82.6748 70.2893 78.9264 73.8919L78.3377 74.4806ZM6.23438 92.8423H4.08715V92.6498C4.48698 92.6498 4.44255 92.013 4.20562 91.3022L1.43643 84.6384C1.32271 84.39 1.22714 84.1616 1.14078 83.9552L1.14073 83.955C0.799796 83.1402 0.602581 82.6688 0 82.6688V82.4763H3.3023V82.6688C2.53226 82.6688 2.84323 83.5277 3.3023 84.6236L5.15336 89.0661L6.94519 84.8013C7.3006 83.9128 7.43387 83.2612 6.76749 83.2612V83.0687H9.27013V83.2612C8.50009 83.2612 8.81107 84.1201 9.27013 85.2159L12.454 92.8423H9.80324V92.6498C10.2031 92.6498 10.1586 92.013 9.9217 91.3022L9.66996 90.7099V90.6951L8.02622 86.7264L6.11592 91.3022C5.87898 92.013 5.83455 92.6498 6.23438 92.6498V92.8423ZM14.6012 84.6384L12.9871 88.5182H11.0472L13.0019 83.9276C13.2832 83.1871 13.3277 82.6688 12.7353 82.6688V82.4763H16.0376V82.6688C15.435 82.6688 15.2378 83.1402 14.8969 83.955C14.8105 84.1615 14.7149 84.3899 14.6012 84.6384ZM178.649 82.4763H171.171V82.6688C171.941 82.6688 171.941 83.4537 171.941 84.6236V90.6951C171.941 91.8649 171.941 92.6498 171.171 92.6498V92.8423H178.649L178.871 90.4137H178.664C178.664 91.1837 177.672 91.1837 176.502 91.1837H173.718V84.1349H176.502C177.672 84.1349 178.457 84.1349 178.457 84.9049H178.649V82.4763ZM176.295 89.3179H176.487C176.606 88.5034 177.183 87.7334 177.953 87.7334V87.5408C177.183 87.5408 176.606 86.7856 176.487 85.9563H176.295C176.191 86.7856 175.599 87.5408 174.843 87.5408V87.7334C175.599 87.7334 176.191 88.5034 176.295 89.3179Z" fill="white"/>
<path d="M30.1242 138.367C28.0353 140.038 4.38883 141.333 6.9373 140.498C9.48577 139.662 21.685 129.97 20.4317 126.586C19.5752 124.273 12.0737 121.187 6.8317 119.372C6.06645 119.107 6.06254 118.016 6.83603 117.776C18.2776 114.23 38.9892 109.602 49.4482 113.593C50.1293 113.852 50.0628 114.776 49.3893 115.054C45.2082 116.785 41.4778 119.652 51.1804 121.113C70.7326 123.152 87.9592 123.633 94.1284 123.62C100.298 123.633 117.524 123.152 137.076 121.113C146.779 119.652 143.049 116.785 138.868 115.054C138.194 114.776 138.128 113.852 138.809 113.593C149.268 109.602 169.979 114.23 181.421 117.776C182.194 118.016 182.19 119.107 181.425 119.372C176.183 121.187 168.682 124.273 167.825 126.586C166.572 129.97 178.771 139.662 181.32 140.498C183.868 141.333 160.222 140.038 158.133 138.367M30.1242 138.367C34.4475 132.734 32.0629 128.299 30.2357 126.682C30.1621 126.616 30.0998 126.544 30.0513 126.458C28.5122 123.746 26.4723 118.564 30.1242 118.564C30.1242 118.564 35.9123 119.372 40.6523 118.564M30.1242 138.367C28.5923 140.484 26.4477 145.135 30.1242 146.806C37.9785 150.33 61.7754 156.95 94.1284 155.246C126.481 156.95 150.278 150.33 158.133 146.806C161.809 145.135 159.664 140.484 158.133 138.367M158.133 138.367C153.809 132.734 156.194 128.299 158.021 126.682C158.095 126.616 158.157 126.544 158.206 126.458C159.745 123.746 162.186 116.834 158.133 118.564C154.079 120.295 151.716 118.564 147.605 118.564" stroke="white" stroke-width="1.89601" stroke-linecap="square" stroke-linejoin="round"/>
<path d="M44.2758 132.498L43.6825 134.25L43.5344 134.223C43.5915 133.656 42.8198 132.407 41.3952 132.145C40.7113 132.019 40.0063 132.137 39.8596 132.935C39.6081 134.302 44.075 134.935 43.5615 137.727C43.2765 139.277 41.6152 139.726 40.2476 139.475C39.0737 139.259 37.9431 138.615 37.3919 137.512L37.3805 137.51L38.1433 135.989L38.2914 136.016C38.3556 137.076 39.5603 137.958 40.5404 138.138C41.1445 138.249 42.0868 138.187 42.2251 137.435C42.5059 135.907 38.0432 135.252 38.5231 132.642C38.8103 131.08 40.252 130.544 41.6881 130.808C42.7252 130.999 43.6692 131.632 44.2758 132.498Z" fill="white"/>
<path d="M54.325 134.9L53.8322 138.212C53.5032 140.424 51.7217 141.296 50.0941 141.054C48.478 140.813 47.0157 139.459 47.3448 137.247L47.8375 133.935C47.9722 133.029 48.0626 132.422 47.4666 132.333L47.4887 132.184L50.0562 132.566L50.034 132.715C49.5068 132.636 49.3796 133.098 49.2607 133.818L48.7202 137.452C48.5344 138.701 49.3822 139.46 50.3106 139.598C51.2505 139.738 52.271 139.257 52.4568 138.007L52.9496 134.695C53.0842 133.789 53.1746 133.182 52.5786 133.093L52.6008 132.944L55.1682 133.326L55.1461 133.475C54.55 133.387 54.4597 133.994 54.325 134.9Z" fill="white"/>
<path d="M59.5394 142.03L56.9604 141.736L56.9775 141.586C57.5762 141.655 57.6457 141.045 57.7494 140.135L58.2873 135.414C58.391 134.505 58.4605 133.895 57.8618 133.826L57.8789 133.677L61.022 134.035C64.2343 134.401 64.2029 137.85 61.6334 138.7L62.6798 140.673C62.6886 140.698 62.6988 140.711 62.6975 140.722L63.2933 141.84C63.4921 142.142 63.7013 142.353 64.0007 142.387L63.9836 142.537L61.4046 142.243L61.4217 142.093C61.7671 142.132 61.7371 141.884 61.5794 141.528L60.2009 138.886L59.2897 138.899L59.131 140.292C59.0273 141.202 58.9578 141.812 59.5565 141.88L59.5394 142.03ZM59.7109 135.203L59.438 137.598L60.6179 137.581C62.3712 137.548 62.6123 135.534 60.8738 135.336L59.7109 135.203Z" fill="white"/>
<path d="M71.876 134.902C72.7424 134.971 73.5733 135.339 74.2251 135.914L73.8284 137.835L73.6666 137.823C73.7364 136.945 72.5736 136.364 71.8476 136.283L71.813 136.28C68.1423 135.954 67.6765 141.671 71.3268 141.961C72.1124 142.023 73.1434 141.629 73.429 140.814L73.5907 140.827L73.6855 142.706L73.6846 142.718L73.6731 142.717C72.7988 143.333 72.0725 143.404 71.0328 143.321C65.6635 142.72 66.3774 134.465 71.876 134.902Z" fill="white"/>
<path d="M80.59 135.617L82.9634 135.717L82.9571 135.868C82.5635 135.851 82.3534 136.434 82.7212 137.342L85.1232 143.115C85.3141 143.54 85.5007 143.792 85.8828 143.808L85.8765 143.958L83.283 143.849L83.2894 143.699C83.8567 143.723 83.6967 143.113 83.3925 142.346L79.6066 142.187C79.2392 142.926 79.0287 143.52 79.596 143.544L79.5897 143.694L76.9963 143.585L77.0026 143.435C77.3731 143.45 77.5796 143.227 77.8055 142.819L80.6835 137.257C81.1378 136.383 80.9773 135.784 80.5837 135.768L80.59 135.617ZM81.6664 138.156L80.252 140.904L82.8454 141.012L81.6664 138.156Z" fill="white"/>
<path d="M91.2733 144.044L88.6776 144.046L88.6774 143.895C89.28 143.895 89.3723 143.408 89.5337 142.33L90.2485 137.59C90.3753 136.698 90.2589 136.084 89.6679 136.084L89.6678 135.934L91.267 135.932L94.1685 141.747L97.0494 135.928L98.6601 135.927L98.6603 136.077C98.0577 136.078 97.9539 136.715 98.0936 137.631L98.8042 142.393C98.9673 143.424 99.0603 143.887 99.6513 143.887L99.6514 144.037L97.0557 144.039L97.0556 143.889C97.6582 143.888 97.5766 143.274 97.4368 142.359L96.936 139.126L95.351 142.361C94.9113 143.276 94.877 143.891 95.2826 143.89L95.2827 144.041L93.081 144.043L93.0809 143.892C93.4865 143.892 93.3236 143.081 92.987 142.374L91.3969 139.131L90.9012 142.364C90.7628 143.28 90.6706 143.894 91.2732 143.893L91.2733 144.044Z" fill="white"/>
<path d="M105.376 135.715L107.749 135.612L107.755 135.762C107.362 135.779 107.202 136.378 107.646 137.252L110.532 142.798C110.759 143.205 110.966 143.44 111.348 143.423L111.355 143.574L108.762 143.687L108.755 143.536C109.322 143.512 109.111 142.918 108.743 142.18L104.957 142.345C104.654 143.112 104.495 143.722 105.062 143.697L105.069 143.848L102.475 143.961L102.469 143.81C102.839 143.794 103.026 143.554 103.216 143.128L105.609 137.34C105.987 136.431 105.776 135.848 105.382 135.865L105.376 135.715ZM106.665 138.153L105.49 141.011L108.084 140.898L106.665 138.153Z" fill="white"/>
<path d="M116.9 143.171L114.312 143.377L114.3 143.227C114.901 143.179 114.852 142.567 114.78 141.654L114.404 136.918C114.331 136.006 114.282 135.393 113.682 135.441L113.67 135.291L116.823 135.04C120.046 134.784 120.676 138.175 118.317 139.502L119.722 141.238C119.736 141.261 119.748 141.271 119.749 141.283L120.548 142.266C120.801 142.524 121.046 142.691 121.347 142.667L121.359 142.817L118.771 143.023L118.759 142.873C119.106 142.845 119.029 142.607 118.806 142.288L116.947 139.959L116.055 140.146L116.166 141.544C116.239 142.457 116.287 143.069 116.888 143.021L116.9 143.171ZM115.76 136.438L115.951 138.841L117.106 138.598C118.82 138.23 118.671 136.207 116.927 136.346L115.76 136.438Z" fill="white"/>
<path d="M123.109 134.496L128.925 133.847L129.136 135.735L128.986 135.752C128.919 135.153 128.309 135.221 127.399 135.323L125.234 135.564L125.468 137.66L126.804 137.511C127.714 137.41 128.324 137.342 128.257 136.743L128.407 136.726L128.685 139.214L128.535 139.23C128.468 138.632 127.858 138.7 126.948 138.801L125.612 138.95L125.846 141.046L128.011 140.805C128.921 140.703 129.692 140.617 129.626 140.018L129.787 140L129.825 141.908L124.009 142.557L123.992 142.407C124.591 142.341 124.523 141.73 124.421 140.82L123.895 136.099C123.793 135.189 123.725 134.578 123.126 134.645L123.109 134.496Z" fill="white"/>
<path d="M134.993 133.039L137.343 132.693L137.365 132.842C136.976 132.899 136.878 133.511 137.409 134.335L140.848 139.556C141.115 139.939 141.346 140.151 141.724 140.095L141.746 140.244L139.178 140.622L139.156 140.473C139.718 140.39 139.447 139.821 139.004 139.125L135.256 139.677C135.033 140.471 134.937 141.094 135.499 141.011L135.521 141.16L132.953 141.538L132.931 141.389C133.298 141.335 133.459 141.077 133.604 140.634L135.392 134.632C135.674 133.688 135.405 133.131 135.015 133.188L134.993 133.039ZM136.525 135.332L135.65 138.295L138.218 137.917L136.525 135.332Z" fill="white"/>
<path d="M149.487 131.483L149.556 133.332L149.408 133.36C149.26 132.81 148.094 131.916 146.67 132.178C145.986 132.304 145.369 132.665 145.516 133.463C145.767 134.83 150.167 133.833 150.68 136.625C150.965 138.175 149.572 139.185 148.205 139.437C147.031 139.653 145.745 139.453 144.838 138.619L144.826 138.621L144.998 136.928L145.146 136.9C145.583 137.869 147.023 138.264 148.003 138.084C148.607 137.972 149.466 137.579 149.327 136.827C149.046 135.3 144.642 136.274 144.162 133.665C143.875 132.103 145.032 131.089 146.468 130.825C147.505 130.634 148.613 130.89 149.487 131.483Z" fill="white"/>
</svg>
