<svg width="741" height="518" viewBox="0 0 741 518" fill="none" xmlns="http://www.w3.org/2000/svg">
<path fill-rule="evenodd" clip-rule="evenodd" d="M705.742 18.7301C704.461 17.0909 703.609 14.9329 702.97 12.0497C702.284 8.95425 701.845 5.02286 701.387 0C700.928 5.02398 700.49 8.95551 699.806 12.0503C699.222 14.6918 698.459 16.7237 697.35 18.3052C695.559 20.8788 692.87 22.2911 688.58 23.2383C685.492 23.92 681.575 24.3607 676.567 24.8201C681.57 25.2805 685.489 25.721 688.581 26.4011C692.62 27.2899 695.247 28.588 697.032 30.8746C698.334 32.5372 699.197 34.706 699.841 37.6059C700.528 40.6963 700.965 44.6169 701.422 49.6401C701.873 44.6257 702.317 40.7002 703.006 37.6066C703.776 34.147 704.853 31.7278 706.591 29.9894C708.338 28.2426 710.763 27.1734 714.245 26.4064C717.327 25.7276 721.238 25.2855 726.242 24.8201C721.241 24.3613 717.331 23.9223 714.244 23.2435C710.185 22.3508 707.552 21.0432 705.742 18.7301ZM708.907 24.826C706.672 23.868 704.8 22.5477 703.305 20.6375L703.303 20.6354C702.531 19.6478 701.906 18.5524 701.389 17.3566C700.967 18.3327 700.474 19.2408 699.888 20.0774C698.355 22.2774 696.36 23.7625 693.912 24.8165C696.13 25.7665 697.991 27.0751 699.47 28.9684C700.259 29.9761 700.897 31.0911 701.423 32.3087C702.162 30.5938 703.119 29.0852 704.403 27.8011C705.688 26.5158 707.195 25.5615 708.907 24.826ZM712.342 268.416L692.887 287.69L692.702 287.502V482.314C692.702 491.576 685.193 499.085 675.931 499.085H373.953L355.953 517.084L339.943 501.074H44.2042C39.8482 501.248 33.3041 500.479 27.6124 497.472C21.7158 494.356 16.6714 488.758 16.2492 479.657C15.5865 465.375 15.8901 353.309 16.1742 286.336L0.235186 270.246L19.2058 251.453V59.0315C19.2058 49.7695 26.7141 42.2612 35.9761 42.2612H338.578L337.259 40.943L356.624 21.5783L372.635 37.5889H668.373C672.729 37.4142 679.274 38.1832 684.965 41.1909C690.862 44.3069 695.906 49.9046 696.328 59.0051C696.991 73.2877 696.688 185.354 696.403 252.327L712.342 268.416ZM22.5599 412.21C22.5691 372.241 22.7282 322.718 22.8823 286.36L38.9641 270.428L22.5599 253.869V59.0315C22.5599 51.6219 28.5665 45.6152 35.9761 45.6152H341.932L356.624 60.3077L371.317 45.6152H675.931C677.258 45.6152 678.54 45.8078 679.75 46.1665C680.459 46.4477 681.156 46.7651 681.831 47.1218C683.689 48.1038 685.366 49.3664 686.685 51.0079C688.357 53.2457 689.348 56.023 689.348 59.0315V252.647L673.614 268.234L689.348 284.117V482.314C689.348 489.724 683.341 495.73 675.931 495.73H373.329L355.953 478.355L339.943 494.365H44.1348H44.063L43.9913 494.368C40.466 494.519 35.1415 493.863 30.7466 491.541C26.5243 489.309 23.2416 485.63 22.9501 479.346C22.6725 473.363 22.5673 449.712 22.5599 419.345V412.21ZM727.162 42.0469C727.542 43.7613 728.049 45.0444 728.811 46.0191C729.887 47.3944 731.452 48.1719 733.866 48.7027C735.701 49.1063 738.027 49.3673 741 49.6401C738.025 49.9169 735.699 50.1797 733.867 50.5834C731.796 51.0394 730.354 51.6752 729.316 52.7138C728.282 53.7474 727.642 55.1859 727.184 57.243C726.774 59.0824 726.51 61.4165 726.242 64.398C725.971 61.4113 725.71 59.0801 725.302 57.2425C724.919 55.5183 724.406 54.2287 723.632 53.2401C722.57 51.8805 721.009 51.1087 718.607 50.5802C716.769 50.1758 714.438 49.9139 711.463 49.6401C714.441 49.367 716.77 49.1049 718.606 48.6996C721.157 48.1364 722.756 47.2967 723.821 45.7665C724.48 44.8261 724.934 43.6179 725.281 42.0473C725.688 40.2072 725.948 37.8695 726.221 34.8823C726.494 37.8688 726.755 40.2064 727.162 42.0469ZM727.361 47.1532C728.25 48.289 729.363 49.0741 730.693 49.6437C729.675 50.081 728.779 50.6484 728.015 51.4126C727.251 52.1762 726.682 53.0732 726.243 54.0928C725.93 53.3686 725.55 52.7054 725.081 52.1061C724.202 50.9807 723.095 50.2028 721.777 49.638C723.232 49.0113 724.418 48.1283 725.33 46.8202C725.678 46.3228 725.972 45.7828 726.222 45.2024C726.53 45.9134 726.902 46.5647 727.36 47.152L727.361 47.1532Z" fill="white"/>
</svg>
