<svg width="118" height="50" viewBox="0 0 118 50" fill="none" xmlns="http://www.w3.org/2000/svg">
<path d="M54.3442 11.1021V7.58776L57.8906 7.13844C60.2977 6.8175 60.3137 4.00924 57.8906 4.00924H54.3442C54.3281 3.04641 54.2158 2.40452 53.5097 2.40452V2.1959H57.8906C62.3678 2.1959 62.8652 6.94588 59.4632 8.5185L61.2124 11.07C61.2284 11.1021 61.2445 11.1182 61.2445 11.1342L62.2394 12.5784C62.5603 12.9636 62.8813 13.2203 63.2985 13.2203V13.4289H59.7039V13.2203C60.1853 13.2203 60.1051 12.8833 59.8323 12.418L57.5215 8.99992L56.2698 9.16039V11.1021C56.2698 12.3698 56.2698 13.2203 57.1043 13.2203V13.4289H53.5097V13.2203C54.3442 13.2203 54.3442 12.3698 54.3442 11.1021Z" fill="white"/>
<path d="M63.7743 2.1959H71.8781V4.82765H71.6695C71.6695 3.99319 70.819 3.99319 69.5513 3.99319H66.5344V11.6317H69.5513C70.819 11.6317 71.8942 11.6317 71.8942 10.7972H72.1188L71.8781 13.4289H63.7743V13.2203C64.6087 13.2203 64.6087 12.3698 64.6087 11.1021V4.52275C64.6087 3.25502 64.6087 2.40452 63.7743 2.40452V2.1959ZM69.5352 9.60971H69.3266C69.2143 8.72712 68.5724 7.89266 67.754 7.89266V7.68405C68.5724 7.68405 69.2143 6.86564 69.3266 5.967H69.5352C69.6636 6.86564 70.2894 7.68405 71.1239 7.68405V7.89266C70.2894 7.89266 69.6636 8.72712 69.5352 9.60971Z" fill="white"/>
<path d="M78.7938 13.4289H73.1613V13.2203C73.9957 13.2203 73.9957 12.3698 73.9957 11.1021V4.52275C73.9957 3.25502 73.9957 2.40452 73.1613 2.40452V2.1959H77.8952C81.233 2.1959 82.1798 5.32511 80.7676 7.1224C83.3352 8.72712 82.6773 13.4289 78.7938 13.4289ZM75.9214 3.97714V6.59284H77.8952C79.9171 6.59284 79.9171 3.97714 77.8952 3.97714H75.9214ZM75.9214 8.39013V11.6317H78.7938C80.8318 11.6317 80.8318 8.39013 78.7938 8.39013H75.9214Z" fill="white"/>
<path d="M95.5579 7.81243C95.5579 11.7279 92.6694 13.6857 89.7809 13.6857C86.8764 13.6857 83.9879 11.7279 83.9879 7.81243C83.9879 3.89691 86.8764 1.93915 89.7809 1.93915C92.6694 1.93915 95.5579 3.89691 95.5579 7.81243ZM93.6804 7.81243C93.6804 5.18068 91.7226 3.88086 89.7809 3.88086C87.8232 3.88086 85.8814 5.18068 85.8814 7.81243C85.8814 10.4442 87.8232 11.744 89.7809 11.744C91.7226 11.744 93.6804 10.4442 93.6804 7.81243ZM89.9253 9.57762H89.7167C89.6044 8.67897 88.9625 7.86057 88.1441 7.86057V7.63591C88.9625 7.63591 89.6044 6.8175 89.7167 5.91886H89.9253C90.0537 6.8175 90.6796 7.63591 91.514 7.63591V7.86057C90.6796 7.86057 90.0537 8.67897 89.9253 9.57762Z" fill="white"/>
<path d="M100.498 13.4289H96.903V13.2203C97.7374 13.2203 97.7374 12.3698 97.7374 11.1021V4.52275C97.7374 3.25502 97.7374 2.40452 96.903 2.40452V2.1959H101.284C105.761 2.1959 106.259 6.94588 102.856 8.5185L104.606 11.07C104.622 11.1021 104.638 11.1182 104.638 11.1342L105.633 12.5784C105.954 12.9636 106.275 13.2203 106.692 13.2203V13.4289H103.097V13.2203C103.579 13.2203 103.498 12.8833 103.226 12.418L100.915 8.99992L99.6631 9.16039V11.1021C99.6631 12.3698 99.6631 13.2203 100.498 13.2203V13.4289ZM99.6631 4.00924V7.34706L101.284 7.13844C103.691 6.8175 103.707 4.00924 101.284 4.00924H99.6631Z" fill="white"/>
<path d="M107.168 2.1959H109.141L115.239 9.75414V4.2018C115.239 3.11059 115.159 2.40452 114.405 2.40452V2.1959H117.999V2.40452C117.165 2.40452 117.165 3.25502 117.165 4.52275V11.1021C117.165 12.3698 117.165 13.2203 117.999 13.2203V13.4289H115.817L109.928 6.2077V11.1021C109.928 12.3698 109.928 13.2203 110.762 13.2203V13.4289H107.168V13.2203C108.002 13.2203 108.002 12.3698 108.002 11.1021V4.52275C108.002 3.25502 108.002 2.40452 107.168 2.40452V2.1959Z" fill="white"/>
<path d="M53.5097 19.8238H61.6136V22.4555H61.4049C61.4049 21.6211 60.5544 21.6211 59.2867 21.6211H56.2698V25.1515H58.1313C59.399 25.1515 60.2495 25.1515 60.2495 24.317H60.4582V27.7832H60.2495C60.2495 26.9488 59.399 26.9488 58.1313 26.9488H56.2698V28.73C56.2698 29.9977 56.2698 30.8482 57.1043 30.8482V31.0568H53.5097V30.8482C54.3442 30.8482 54.3442 29.9977 54.3442 28.73V22.1506C54.3442 20.8829 54.3442 20.0324 53.5097 20.0324V19.8238Z" fill="white"/>
<path d="M66.3346 31.0568H62.74V30.8482C63.5744 30.8482 63.5744 29.9977 63.5744 28.73V22.1506C63.5744 20.8829 63.5744 20.0324 62.74 20.0324V19.8238H67.1209C71.598 19.8238 72.0955 24.5738 68.6935 26.1464L70.4426 28.6979C70.4587 28.73 70.4747 28.746 70.4747 28.7621L71.4697 30.2063C71.7906 30.5915 72.1116 30.8482 72.5288 30.8482V31.0568H68.9342V30.8482C69.4156 30.8482 69.3354 30.5112 69.0626 30.0459L66.7518 26.6278L65.5001 26.7883V28.73C65.5001 29.9977 65.5001 30.8482 66.3346 30.8482V31.0568ZM65.5001 21.6371V24.975L67.1209 24.7663C69.528 24.4454 69.544 21.6371 67.1209 21.6371H65.5001Z" fill="white"/>
<path d="M83.9456 25.4403C83.9456 29.3558 81.0571 31.3136 78.1686 31.3136C75.2641 31.3136 72.3756 29.3558 72.3756 25.4403C72.3756 21.5248 75.2641 19.567 78.1686 19.567C81.0571 19.567 83.9456 21.5248 83.9456 25.4403ZM82.0681 25.4403C82.0681 22.8086 80.1103 21.5088 78.1686 21.5088C76.2109 21.5088 74.2692 22.8086 74.2692 25.4403C74.2692 28.0721 76.2109 29.3719 78.1686 29.3719C80.1103 29.3719 82.0681 28.0721 82.0681 25.4403Z" fill="white"/>
<path d="M88.3158 31.0568H84.7213V30.8482C85.5557 30.8482 85.6841 30.1742 85.9088 28.6819L86.9037 22.1186C87.0802 20.8829 86.9197 20.0324 86.1013 20.0324V19.8238H88.3158L92.3276 27.8795L96.3234 19.8238H98.554V20.0324C97.7195 20.0324 97.5751 20.915 97.7677 22.1827L98.7465 28.7781C98.9712 30.2063 99.0996 30.8482 99.918 30.8482V31.0568H96.3234V30.8482C97.1579 30.8482 97.0455 29.9977 96.853 28.73L96.1629 24.2528L93.9645 28.73C93.3547 29.9977 93.3065 30.8482 93.8682 30.8482V31.0568H90.8192V30.8482C91.3809 30.8482 91.1562 29.7249 90.6908 28.746L88.4924 24.2528L87.8023 28.73C87.6098 29.9977 87.4814 30.8482 88.3158 30.8482V31.0568Z" fill="white"/>
<path d="M54.1356 47.7219L56.4945 42.6029H58.5004L57.4894 44.8013H61.084L58.1955 38.5269C57.8746 37.7405 57.2487 37.6603 56.8957 37.6603V37.4517H59.6558L64.3576 47.5614C64.6465 48.1391 64.9193 48.4761 65.4488 48.4761V48.6847H61.8543V48.4761C62.6406 48.4761 62.3838 47.6417 61.9184 46.5986H56.671C56.2056 47.6417 55.9489 48.4761 56.7192 48.4761V48.6847H53.1406V48.4761C53.622 48.4761 53.8788 48.2033 54.1356 47.7219Z" fill="white"/>
<path d="M74.1158 38.6392L73.7467 41.1747H73.5381C73.4739 40.3883 72.1099 38.8799 70.104 38.8799C69.1412 38.8799 68.2105 39.2169 68.2105 40.3402C68.2105 42.2659 74.4528 42.0091 74.4528 45.9407C74.4528 48.1231 72.3025 49.1501 70.3768 49.1501C68.724 49.1501 67.023 48.5564 65.9959 47.1924H65.9799L66.6378 44.9297H66.8464C67.1995 46.3579 69.061 47.2565 70.441 47.2565C71.2915 47.2565 72.5592 46.9356 72.5592 45.8765C72.5592 43.7262 66.3169 43.9508 66.3169 40.276C66.3169 38.0775 68.1463 36.9863 70.1682 36.9863C71.6285 36.9863 73.0728 37.6122 74.1158 38.6392Z" fill="white"/>
<path d="M79.3259 48.6847H75.7313V48.4761C76.5658 48.4761 76.5658 47.6256 76.5658 46.3579V39.7785C76.5658 38.5108 76.5658 37.6603 75.7313 37.6603V37.4517H79.3259V37.6603C78.4914 37.6603 78.4914 38.5108 78.4914 39.7785V42.1696H83.8673V39.7785C83.8673 38.5108 83.8673 37.6603 83.0328 37.6603V37.4517H86.6113V37.6603C85.7929 37.6603 85.7929 38.5108 85.7929 39.7785V46.3579C85.7929 47.6256 85.7929 48.4761 86.6113 48.4761V48.6847H83.0328V48.4761C83.8673 48.4761 83.8673 47.6256 83.8673 46.3579V43.9669H78.4914V46.3579C78.4914 47.6256 78.4914 48.4761 79.3259 48.4761V48.6847Z" fill="white"/>
<path d="M87.375 37.4517H95.4788V40.0834H95.2702C95.2702 39.249 94.4197 39.249 93.1519 39.249H90.1351V42.1696H91.9965C93.2643 42.1696 94.1148 42.1696 94.1148 41.3351H94.3234V44.8013H94.1148C94.1148 43.9669 93.2643 43.9669 91.9965 43.9669H90.1351V46.8875H93.1519C94.4197 46.8875 95.4948 46.8875 95.4948 46.053H95.7195L95.4788 48.6847H87.375V48.4761C88.2094 48.4761 88.2094 47.6256 88.2094 46.3579V39.7785C88.2094 38.5108 88.2094 37.6603 87.375 37.6603V37.4517Z" fill="white"/>
<path d="M105.395 38.6392L105.026 41.1747H104.818C104.753 40.3883 103.389 38.8799 101.384 38.8799C100.421 38.8799 99.49 39.2169 99.49 40.3402C99.49 42.2659 105.732 42.0091 105.732 45.9407C105.732 48.1231 103.582 49.1501 101.656 49.1501C100.003 49.1501 98.3025 48.5564 97.2755 47.1924H97.2594L97.9173 44.9297H98.126C98.479 46.3579 100.34 47.2565 101.721 47.2565C102.571 47.2565 103.839 46.9356 103.839 45.8765C103.839 43.7262 97.5964 43.9508 97.5964 40.276C97.5964 38.0775 99.4258 36.9863 101.448 36.9863C102.908 36.9863 104.352 37.6122 105.395 38.6392Z" fill="white"/>
<path fill-rule="evenodd" clip-rule="evenodd" d="M23.1074 39.3292L24.2685 49.1677L25.4297 39.3292C28.6729 39.0718 31.615 37.7456 33.9039 35.7027L39.4369 40.0675L35.0721 34.5346C37.1149 32.2457 38.4412 29.3035 38.6986 26.0603L48.5371 24.8992L38.6986 23.738C38.4407 20.4879 37.1092 17.54 35.0589 15.249L39.4369 9.69937L33.8852 14.0789C31.599 12.0455 28.664 10.7258 25.4297 10.4691L24.2685 0.630615L23.1074 10.4691C19.8661 10.7263 16.9254 12.0512 14.6371 14.0921L9.06875 9.69937L13.4615 15.2677C11.4206 17.556 10.0957 20.4967 9.83846 23.738L0 24.8992L9.83846 26.0603C10.0952 29.2946 11.4149 32.2296 13.4483 34.5159L9.06876 40.0675L14.6184 35.6895C16.9094 37.7399 19.8573 39.0713 23.1074 39.3292ZM25.5861 38.0043C28.3526 37.7295 30.8673 36.5986 32.8614 34.8803L30.048 32.6608C28.8776 33.5337 27.5032 34.1481 26.0092 34.4195L25.5861 38.0043ZM34.2497 33.492C35.968 31.4979 37.0989 28.9832 37.3737 26.2167L33.7889 26.6398C33.5175 28.1338 32.9031 29.5082 32.0302 30.6786L34.2497 33.492ZM37.3737 23.5816C37.0982 20.8081 35.9623 18.2878 34.2367 16.2913L32.0182 19.1036C32.8974 20.2775 33.5162 21.6577 33.7889 23.1585L37.3737 23.5816ZM32.8423 14.9016C30.8513 13.1925 28.3438 12.0679 25.5861 11.794L26.0092 15.3788C27.4944 15.6486 28.8616 16.2574 30.0274 17.1222L32.8423 14.9016ZM22.951 11.794C20.1863 12.0686 17.6732 13.1982 15.6797 14.9146L18.4935 17.1343C19.6629 16.2631 21.0358 15.6499 22.5279 15.3788L22.951 11.794ZM14.284 16.3103C12.5676 18.3038 11.438 20.8169 11.1634 23.5816L14.7482 23.1585C15.0193 21.6664 15.6325 20.2935 16.5036 19.1241L14.284 16.3103ZM11.1634 26.2167C11.4373 28.9744 12.5619 31.4819 14.271 33.473L16.4916 30.6581C15.6268 29.4922 15.018 28.125 14.7482 26.6398L11.1634 26.2167ZM15.6607 34.8673L18.473 32.6488C19.6468 33.528 21.0271 34.1469 22.5279 34.4195L22.951 38.0043C20.1775 37.7288 17.6572 36.5929 15.6607 34.8673ZM16.4862 24.8992C16.4862 29.1972 19.9705 32.6815 24.2685 32.6815C28.5666 32.6815 32.0509 29.1972 32.0509 24.8992C32.0509 20.6011 28.5666 17.1168 24.2685 17.1168C19.9705 17.1168 16.4862 20.6011 16.4862 24.8992Z" fill="white"/>
</svg>
